<svg width="14" height="13" viewBox="0 0 14 13" fill="none" xmlns="http://www.w3.org/2000/svg">
<path d="M13.6253 5.15967L8.83199 4.75301L6.95866 0.333008L5.08532 4.75301L0.291992 5.15967L3.93199 8.31301L2.83866 12.9997L6.95866 10.513L11.0787 12.9997L9.98533 8.31301L13.6253 5.15967ZM8.68532 8.61301L9.05866 10.2197L7.64532 9.36634L6.95866 8.95301L6.27199 9.36634L4.85866 10.2197L5.23199 8.61301L5.41199 7.82634L4.80533 7.29967L3.55199 6.21301L5.19866 6.07301L5.99866 6.00634L6.31199 5.26634L6.95866 3.75301L7.60533 5.27967L7.91866 6.01967L8.71866 6.08634L10.3653 6.22634L9.11199 7.31301L8.50532 7.83967L8.68532 8.61301Z" fill="#F586E6"/>
</svg>
