<svg width="22" height="19" viewBox="0 0 22 19" fill="none" xmlns="http://www.w3.org/2000/svg">
<path d="M15.6193 0.958984C13.8068 0.958984 12.0672 1.73523 10.9318 2.9619C9.79639 1.73523 8.0568 0.958984 6.2443 0.958984C3.03597 0.958984 0.515137 3.27815 0.515137 6.22982C0.515137 9.85232 4.0568 12.804 9.42139 17.289L10.9318 18.5444L12.4422 17.2794C17.8068 12.804 21.3485 9.85232 21.3485 6.22982C21.3485 3.27815 18.8276 0.958984 15.6193 0.958984ZM11.036 15.8611L10.9318 15.9569L10.8276 15.8611C5.8693 11.7306 2.59847 8.9994 2.59847 6.22982C2.59847 4.31315 4.16097 2.87565 6.2443 2.87565C7.84847 2.87565 9.41097 3.8244 9.96305 5.13732H11.911C12.4526 3.8244 14.0151 2.87565 15.6193 2.87565C17.7026 2.87565 19.2651 4.31315 19.2651 6.22982C19.2651 8.9994 15.9943 11.7306 11.036 15.8611Z" fill="#F6F8FB"/>
</svg>
