<svg width="17" height="20" viewBox="0 0 17 20" fill="none" xmlns="http://www.w3.org/2000/svg">
<path d="M14.1575 13.4953C13.4552 13.4953 12.8268 13.7828 12.3463 14.2332L5.75737 10.2561C5.80358 10.0357 5.84054 9.81529 5.84054 9.58529C5.84054 9.35529 5.80358 9.13487 5.75737 8.91445L12.2723 4.9757C12.7713 5.45487 13.4275 5.75195 14.1575 5.75195C15.6915 5.75195 16.9298 4.46779 16.9298 2.87695C16.9298 1.28612 15.6915 0.00195312 14.1575 0.00195312C12.6235 0.00195312 11.3852 1.28612 11.3852 2.87695C11.3852 3.10695 11.4221 3.32737 11.4684 3.54779L4.9534 7.48654C4.45438 7.00737 3.79826 6.71029 3.06822 6.71029C1.5342 6.71029 0.295898 7.99445 0.295898 9.58529C0.295898 11.1761 1.5342 12.4603 3.06822 12.4603C3.79826 12.4603 4.45438 12.1632 4.9534 11.684L11.533 15.6707C11.4868 15.872 11.4591 16.0828 11.4591 16.2936C11.4591 17.8365 12.6697 19.092 14.1575 19.092C15.6453 19.092 16.8559 17.8365 16.8559 16.2936C16.8559 14.7507 15.6453 13.4953 14.1575 13.4953ZM14.1575 1.91862C14.6658 1.91862 15.0816 2.34987 15.0816 2.87695C15.0816 3.40404 14.6658 3.83529 14.1575 3.83529C13.6492 3.83529 13.2334 3.40404 13.2334 2.87695C13.2334 2.34987 13.6492 1.91862 14.1575 1.91862ZM3.06822 10.5436C2.55996 10.5436 2.14411 10.1124 2.14411 9.58529C2.14411 9.0582 2.55996 8.62695 3.06822 8.62695C3.57648 8.62695 3.99233 9.0582 3.99233 9.58529C3.99233 10.1124 3.57648 10.5436 3.06822 10.5436ZM14.1575 17.2711C13.6492 17.2711 13.2334 16.8399 13.2334 16.3128C13.2334 15.7857 13.6492 15.3545 14.1575 15.3545C14.6658 15.3545 15.0816 15.7857 15.0816 16.3128C15.0816 16.8399 14.6658 17.2711 14.1575 17.2711Z" fill="#F6F8FB"/>
</svg>
