<svg width="15" height="13" viewBox="0 0 15 13" fill="none" xmlns="http://www.w3.org/2000/svg">
<path d="M14.1243 5.16016L9.33102 4.7535L7.45768 0.333496L5.58435 4.7535L0.791016 5.16016L4.43102 8.3135L3.33768 13.0002L7.45768 10.5135L11.5777 13.0002L10.4843 8.3135L14.1243 5.16016ZM9.18435 8.6135L9.55768 10.2202L8.14435 9.36683L7.45768 8.9535L6.77102 9.36683L5.35768 10.2202L5.73102 8.6135L5.91102 7.82683L5.30435 7.30016L4.05102 6.2135L5.69768 6.0735L6.49768 6.00683L6.81102 5.26683L7.45768 3.7535L8.10435 5.28016L8.41768 6.02016L9.21768 6.08683L10.8643 6.22683L9.61101 7.3135L9.00435 7.84016L9.18435 8.6135Z" fill="#F4F4F5"/>
</svg>