<svg width="22" height="22" viewBox="0 0 22 22" fill="none" xmlns="http://www.w3.org/2000/svg">
<g clip-path="url(#clip0_4149_57855)">
<path opacity="0.3" d="M12.7413 13.9955L9.24125 10.4955L5.74125 13.9955L4.875 13.1292V17.1367H17.125V11.388L16.2413 10.5042L12.7413 13.9955ZM4.875 10.653L5.74125 11.528L9.24125 8.02797L12.7413 11.528L16.2413 8.01922L17.125 8.90297V4.88672H4.875V10.653Z" fill="#F6F8FB"/>
<path d="M17.125 3.13672H4.875C3.9125 3.13672 3.125 3.92422 3.125 4.88672V17.1367C3.125 18.0992 3.9125 18.8867 4.875 18.8867H17.125C18.0875 18.8867 18.875 18.0992 18.875 17.1367V4.88672C18.875 3.92422 18.0875 3.13672 17.125 3.13672ZM17.125 17.1367H4.875V13.1292L5.74125 13.9955L9.24125 10.4955L12.7413 13.9955L16.2413 10.5042L17.125 11.388V17.1367ZM17.125 8.90297L16.2413 8.01922L12.7413 11.528L9.24125 8.02797L5.74125 11.528L4.875 10.653V4.88672H17.125V8.90297Z" fill="#F6F8FB"/>
</g>
<defs>
<clipPath id="clip0_4149_57855">
<rect width="21" height="21" fill="white" transform="translate(0.5 0.511719)"/>
</clipPath>
</defs>
</svg>
