<svg width="19" height="20" viewBox="0 0 19 20" fill="none" xmlns="http://www.w3.org/2000/svg">
<g clip-path="url(#clip0_4149_57854)">
<path opacity="0.3" d="M9.5 3.67822C6.185 3.67822 3.5 6.51239 3.5 10.0116C3.5 13.5107 6.185 16.3449 9.5 16.3449C12.815 16.3449 15.5 13.5107 15.5 10.0116C15.5 6.51239 12.815 3.67822 9.5 3.67822ZM12.125 6.84489C12.7475 6.84489 13.25 7.37531 13.25 8.03239C13.25 8.68947 12.7475 9.21989 12.125 9.21989C11.5025 9.21989 11 8.68947 11 8.03239C11 7.37531 11.5025 6.84489 12.125 6.84489ZM6.875 6.84489C7.4975 6.84489 8 7.37531 8 8.03239C8 8.68947 7.4975 9.21989 6.875 9.21989C6.2525 9.21989 5.75 8.68947 5.75 8.03239C5.75 7.37531 6.2525 6.84489 6.875 6.84489ZM9.5 14.3657C7.7525 14.3657 6.26 13.2178 5.66 11.5949H6.9125C7.4375 12.537 8.39 13.1782 9.5 13.1782C10.61 13.1782 11.57 12.537 12.0875 11.5949H13.34C12.74 13.2178 11.2475 14.3657 9.5 14.3657V14.3657Z" fill="#F6F8FB"/>
<path d="M12.125 9.22021C12.7463 9.22021 13.25 8.68855 13.25 8.03271C13.25 7.37688 12.7463 6.84521 12.125 6.84521C11.5037 6.84521 11 7.37688 11 8.03271C11 8.68855 11.5037 9.22021 12.125 9.22021Z" fill="#F6F8FB"/>
<path d="M6.875 9.22021C7.49632 9.22021 8 8.68855 8 8.03271C8 7.37688 7.49632 6.84521 6.875 6.84521C6.25368 6.84521 5.75 7.37688 5.75 8.03271C5.75 8.68855 6.25368 9.22021 6.875 9.22021Z" fill="#F6F8FB"/>
<path d="M9.5 13.1785C8.39 13.1785 7.4375 12.5373 6.9125 11.5952H5.66C6.26 13.2181 7.7525 14.366 9.5 14.366C11.2475 14.366 12.74 13.2181 13.34 11.5952H12.0875C11.57 12.5373 10.61 13.1785 9.5 13.1785ZM9.4925 2.09521C5.3525 2.09521 2 5.64188 2 10.0119C2 14.3819 5.3525 17.9285 9.4925 17.9285C13.64 17.9285 17 14.3819 17 10.0119C17 5.64188 13.64 2.09521 9.4925 2.09521ZM9.5 16.3452C6.185 16.3452 3.5 13.511 3.5 10.0119C3.5 6.51271 6.185 3.67855 9.5 3.67855C12.815 3.67855 15.5 6.51271 15.5 10.0119C15.5 13.511 12.815 16.3452 9.5 16.3452Z" fill="#F6F8FB"/>
</g>
<defs>
<clipPath id="clip0_4149_57854">
<rect width="18" height="19" fill="white" transform="translate(0.5 0.511719)"/>
</clipPath>
</defs>
</svg>
