<svg width="15" height="16" viewBox="0 0 15 16" fill="none" xmlns="http://www.w3.org/2000/svg">
<path d="M3.87891 7.25H5.37891V8.75H3.87891V7.25ZM12.8789 2H12.1289V0.5H10.6289V2H4.62891V0.5H3.12891V2H2.37891C1.54641 2 0.886406 2.675 0.886406 3.5L0.878906 14C0.878906 14.825 1.54641 15.5 2.37891 15.5H12.8789C13.7039 15.5 14.3789 14.825 14.3789 14V3.5C14.3789 2.675 13.7039 2 12.8789 2ZM12.8789 14H2.37891V6.5H12.8789V14ZM12.8789 5H2.37891V3.5H12.8789V5ZM9.87891 7.25H11.3789V8.75H9.87891V7.25ZM6.87891 7.25H8.37891V8.75H6.87891V7.25Z" fill="#9EA4C1"/>
</svg>
