<svg width="16" height="16" viewBox="0 0 16 16" fill="none" xmlns="http://www.w3.org/2000/svg">
<path d="M13.8301 3.65789H10.8301V2.07895C10.8301 1.20263 10.1626 0.5 9.33008 0.5H6.33008C5.49758 0.5 4.83008 1.20263 4.83008 2.07895V3.65789H1.83008C0.997578 3.65789 0.337578 4.36053 0.337578 5.23684L0.330078 13.9211C0.330078 14.7974 0.997578 15.5 1.83008 15.5H13.8301C14.6626 15.5 15.3301 14.7974 15.3301 13.9211V5.23684C15.3301 4.36053 14.6626 3.65789 13.8301 3.65789ZM6.33008 2.07895H9.33008V3.65789H6.33008V2.07895ZM13.8301 13.9211H1.83008V5.23684H13.8301V13.9211Z" fill="#9EA4C1"/>
</svg>
