<svg width="16" height="16" viewBox="0 0 16 16" fill="none" xmlns="http://www.w3.org/2000/svg">
<path d="M8.8138 4.25H12.9805V5.91667H8.8138V4.25ZM8.8138 10.0833H12.9805V11.75H8.8138V10.0833ZM13.8138 0.5H2.14714C1.23047 0.5 0.480469 1.25 0.480469 2.16667V13.8333C0.480469 14.75 1.23047 15.5 2.14714 15.5H13.8138C14.7305 15.5 15.4805 14.75 15.4805 13.8333V2.16667C15.4805 1.25 14.7305 0.5 13.8138 0.5ZM13.8138 13.8333H2.14714V2.16667H13.8138V13.8333ZM7.14714 3H2.98047V7.16667H7.14714V3ZM6.3138 6.33333H3.8138V3.83333H6.3138V6.33333ZM7.14714 8.83333H2.98047V13H7.14714V8.83333ZM6.3138 12.1667H3.8138V9.66667H6.3138V12.1667Z" fill="#9EA4C1"/>
</svg>