<svg width="19" height="16" viewBox="0 0 19 16" fill="none" xmlns="http://www.w3.org/2000/svg">
<path d="M2.05469 15.5H17.0547C18.0859 15.5 18.9297 14.75 18.9297 13.8333V3.83333C18.9297 2.91667 18.0859 2.16667 17.0547 2.16667H14.0828L12.3672 0.5H6.74219L5.02656 2.16667H2.05469C1.02344 2.16667 0.179688 2.91667 0.179688 3.83333V13.8333C0.179688 14.75 1.02344 15.5 2.05469 15.5ZM2.05469 3.83333H5.85156L7.56719 2.16667H11.5422L13.2578 3.83333H17.0547V13.8333H2.05469V3.83333ZM9.55469 4.66667C6.96719 4.66667 4.86719 6.53333 4.86719 8.83333C4.86719 11.1333 6.96719 13 9.55469 13C12.1422 13 14.2422 11.1333 14.2422 8.83333C14.2422 6.53333 12.1422 4.66667 9.55469 4.66667ZM9.55469 11.3333C8.00782 11.3333 6.74219 10.2083 6.74219 8.83333C6.74219 7.45833 8.00782 6.33333 9.55469 6.33333C11.1016 6.33333 12.3672 7.45833 12.3672 8.83333C12.3672 10.2083 11.1016 11.3333 9.55469 11.3333Z" fill="#9EA4C1"/>
</svg>
