<svg width="18" height="16" viewBox="0 0 18 16" fill="none" xmlns="http://www.w3.org/2000/svg">
<path d="M15.6667 2.33341H13.0251L11.5001 0.666748H6.50008L4.97508 2.33341H2.33341C1.41675 2.33341 0.666748 3.08341 0.666748 4.00008V14.0001C0.666748 14.9167 1.41675 15.6667 2.33341 15.6667H15.6667C16.5834 15.6667 17.3334 14.9167 17.3334 14.0001V4.00008C17.3334 3.08341 16.5834 2.33341 15.6667 2.33341ZM15.6667 14.0001H2.33341V4.00008H5.70841L7.23341 2.33341H10.7667L12.2917 4.00008H15.6667V14.0001ZM9.00008 4.83341C6.70008 4.83341 4.83341 6.70008 4.83341 9.00008C4.83341 11.3001 6.70008 13.1667 9.00008 13.1667C11.3001 13.1667 13.1667 11.3001 13.1667 9.00008C13.1667 6.70008 11.3001 4.83341 9.00008 4.83341ZM9.00008 11.5001C7.62508 11.5001 6.50008 10.3751 6.50008 9.00008C6.50008 7.62508 7.62508 6.50008 9.00008 6.50008C10.3751 6.50008 11.5001 7.62508 11.5001 9.00008C11.5001 10.3751 10.3751 11.5001 9.00008 11.5001Z" fill="#F9B6F0"/>
</svg>
