<svg width="24" height="24" viewBox="0 0 24 24" fill="none" xmlns="http://www.w3.org/2000/svg">
<rect width="24" height="24" rx="6" fill="white" fill-opacity="0.3"/>
<path opacity="0.5" d="M8.58984 15.4104H15.4104V8.58984H8.58984V15.4104ZM10.5386 12.5555L11.5811 13.8124L13.0427 11.927L14.9232 14.436H9.07702L10.5386 12.5555Z" fill="white"/>
<path d="M15.4101 7.61523H8.58959C8.0537 7.61523 7.61523 8.0537 7.61523 8.58959V15.4101C7.61523 15.946 8.0537 16.3845 8.58959 16.3845H15.4101C15.946 16.3845 16.3845 15.946 16.3845 15.4101V8.58959C16.3845 8.0537 15.946 7.61523 15.4101 7.61523ZM15.4101 15.4101H8.58959V8.58959H15.4101V15.4101ZM13.0424 11.9316L11.5809 13.8122L10.5383 12.5552L9.07677 14.4357H14.9229L13.0424 11.9316Z" fill="white"/>
</svg>