<svg width="20" height="20" viewBox="0 0 20 20" fill="none" xmlns="http://www.w3.org/2000/svg">
<path opacity="0.3" d="M10.8333 5.83325H2.5V14.1666H10.8333V5.83325ZM6.66667 6.66659C7.55833 6.66659 8.29167 7.39159 8.29167 8.29158C8.29167 9.18325 7.56667 9.91658 6.66667 9.91658C5.76667 9.91658 5.04167 9.19159 5.04167 8.29158C5.04167 7.39159 5.775 6.66659 6.66667 6.66659ZM9.90833 13.3333H3.425V12.7916C3.425 11.7083 5.58333 11.1666 6.66667 11.1666C7.75 11.1666 9.90833 11.7083 9.90833 12.7916V13.3333Z" fill="#F9B6F0"/>
<path d="M17.4999 4.16675H19.1666V15.8334H17.4999V4.16675ZM14.1666 4.16675H15.8333V15.8334H14.1666V4.16675ZM11.6666 15.8334C12.1249 15.8334 12.4999 15.4584 12.4999 15.0001V5.00008C12.4999 4.54175 12.1249 4.16675 11.6666 4.16675H1.66659C1.20825 4.16675 0.833252 4.54175 0.833252 5.00008V15.0001C0.833252 15.4584 1.20825 15.8334 1.66659 15.8334H11.6666ZM2.49992 5.83341H10.8333V14.1667H2.49992V5.83341Z" fill="#F9B6F0"/>
<path d="M6.66675 9.90845C7.56421 9.90845 8.29175 9.18091 8.29175 8.28345C8.29175 7.38598 7.56421 6.65845 6.66675 6.65845C5.76929 6.65845 5.04175 7.38598 5.04175 8.28345C5.04175 9.18091 5.76929 9.90845 6.66675 9.90845Z" fill="#F9B6F0"/>
<path d="M6.66672 11.1667C5.58338 11.1667 3.42505 11.7084 3.42505 12.7917V13.3334H9.90838V12.7917C9.90838 11.7084 7.75005 11.1667 6.66672 11.1667Z" fill="#F9B6F0"/>
</svg>
