<svg width="15" height="16" viewBox="0 0 15 16" fill="none" xmlns="http://www.w3.org/2000/svg">
<path d="M9.21792 2.45833L13.0417 6.28208V13.5417H1.95833V2.45833H9.21792ZM9.21792 0.875H1.95833C1.0875 0.875 0.375 1.5875 0.375 2.45833V13.5417C0.375 14.4125 1.0875 15.125 1.95833 15.125H13.0417C13.9125 15.125 14.625 14.4125 14.625 13.5417V6.28208C14.625 5.8625 14.4588 5.45875 14.1579 5.16583L10.3342 1.34208C10.0413 1.04125 9.6375 0.875 9.21792 0.875ZM3.54167 10.375H11.4583V11.9583H3.54167V10.375ZM3.54167 7.20833H11.4583V8.79167H3.54167V7.20833ZM3.54167 4.04167H9.08333V5.625H3.54167V4.04167Z" fill="#905596"/>
</svg>
