<svg width="14" height="12" viewBox="0 0 14 12" fill="none" xmlns="http://www.w3.org/2000/svg">
<path d="M10.1667 0C9.00667 0 7.89333 0.5297 7.16667 1.36676C6.44 0.5297 5.32667 0 4.16667 0C2.11333 0 0.5 1.58256 0.5 3.59673C0.5 6.06866 2.76667 8.08283 6.2 11.1433L7.16667 12L8.13333 11.1368C11.5667 8.08283 13.8333 6.06866 13.8333 3.59673C13.8333 1.58256 12.22 0 10.1667 0ZM7.23333 10.1689L7.16667 10.2343L7.1 10.1689C3.92667 7.35041 1.83333 5.48665 1.83333 3.59673C1.83333 2.28883 2.83333 1.3079 4.16667 1.3079C5.19333 1.3079 6.19333 1.95531 6.54667 2.85123H7.79333C8.14 1.95531 9.14 1.3079 10.1667 1.3079C11.5 1.3079 12.5 2.28883 12.5 3.59673C12.5 5.48665 10.4067 7.35041 7.23333 10.1689Z" fill="#CCCEDD"/>
</svg>
