<svg width="20" height="19" viewBox="0 0 20 19" fill="none" xmlns="http://www.w3.org/2000/svg">
<path opacity="0.3" d="M9.99992 13.4001L6.23992 15.6701L7.23992 11.3901L3.91992 8.5101L8.29992 8.1301L9.99992 4.1001L11.7099 8.1401L16.0899 8.5201L12.7699 11.4001L13.7699 15.6801L9.99992 13.4001Z" fill="#FFE999"/>
<path d="M20 7.24L12.81 6.62L10 0L7.19 6.63L0 7.24L5.46 11.97L3.82 19L10 15.27L16.18 19L14.55 11.97L20 7.24ZM10 13.4L6.24 15.67L7.24 11.39L3.92 8.51L8.3 8.13L10 4.1L11.71 8.14L16.09 8.52L12.77 11.4L13.77 15.68L10 13.4Z" fill="#FFE999"/>
</svg>