<svg width="24" height="24" viewBox="0 0 24 24" fill="none" xmlns="http://www.w3.org/2000/svg">
<g clip-path="url(#clip0_4230_64748)">
<path d="M6.08588 23.9151C5.15758 23.9047 4.23801 23.7344 3.36753 23.4118C2.73187 23.1768 2.15676 22.8027 1.68424 22.3169C1.19712 21.8454 0.822514 21.2701 0.588235 20.6339C0.265824 19.7634 0.0958076 18.8439 0.085647 17.9158C0.0143529 16.3727 0 15.9099 0 12C0 8.09012 0.0157647 7.62894 0.0849412 6.08471C0.0963347 5.15689 0.26656 4.23787 0.588235 3.36753C0.823654 2.73176 1.19773 2.15642 1.68329 1.68329C2.15523 1.19662 2.73061 0.822358 3.36682 0.588235C4.2373 0.265557 5.15687 0.0953008 6.08518 0.0849412C7.62871 0.0143529 8.09223 0 12 0C15.9078 0 16.3711 0.0157647 17.9153 0.0849412C18.8433 0.0962542 19.7626 0.266481 20.6332 0.588235C21.2691 0.822667 21.8443 1.1968 22.3165 1.68306C22.8029 2.15535 23.1772 2.73073 23.4118 3.36682C23.7345 4.23729 23.9049 5.15686 23.9153 6.08518C23.9859 7.62941 24.0002 8.09176 24.0002 12.0005C24.0002 15.9092 23.9859 16.3715 23.9153 17.9158C23.9041 18.8439 23.7338 19.7633 23.4118 20.6339C23.1682 21.2652 22.7951 21.8386 22.3166 22.317C21.838 22.7954 21.2646 23.1683 20.6332 23.4118C19.7627 23.7345 18.8431 23.9049 17.9148 23.9153C16.372 23.9859 15.9082 24.0002 11.9995 24.0002C8.09082 24.0002 7.62847 23.9866 6.08565 23.9153" fill="url(#paint0_radial_4230_64748)"/>
<path d="M6.08588 23.9151C5.15758 23.9047 4.23801 23.7344 3.36753 23.4118C2.73187 23.1768 2.15676 22.8027 1.68424 22.3169C1.19712 21.8454 0.822514 21.2701 0.588235 20.6339C0.265824 19.7634 0.0958076 18.8439 0.085647 17.9158C0.0143529 16.3727 0 15.9099 0 12C0 8.09012 0.0157647 7.62894 0.0849412 6.08471C0.0963347 5.15689 0.26656 4.23787 0.588235 3.36753C0.823654 2.73176 1.19773 2.15642 1.68329 1.68329C2.15523 1.19662 2.73061 0.822358 3.36682 0.588235C4.2373 0.265557 5.15687 0.0953008 6.08518 0.0849412C7.62871 0.0143529 8.09223 0 12 0C15.9078 0 16.3711 0.0157647 17.9153 0.0849412C18.8433 0.0962542 19.7626 0.266481 20.6332 0.588235C21.2691 0.822667 21.8443 1.1968 22.3165 1.68306C22.8029 2.15535 23.1772 2.73073 23.4118 3.36682C23.7345 4.23729 23.9049 5.15686 23.9153 6.08518C23.9859 7.62941 24.0002 8.09176 24.0002 12.0005C24.0002 15.9092 23.9859 16.3715 23.9153 17.9158C23.9041 18.8439 23.7338 19.7633 23.4118 20.6339C23.1682 21.2652 22.7951 21.8386 22.3166 22.317C21.838 22.7954 21.2646 23.1683 20.6332 23.4118C19.7627 23.7345 18.8431 23.9049 17.9148 23.9153C16.372 23.9859 15.9082 24.0002 11.9995 24.0002C8.09082 24.0002 7.62847 23.9866 6.08565 23.9153" fill="url(#paint1_radial_4230_64748)"/>
<path d="M9.05287 12.0513C9.05292 11.4635 9.22727 10.8889 9.55389 10.4001C9.88051 9.91141 10.3447 9.53051 10.8878 9.30562C11.4309 9.08073 12.0285 9.02194 12.605 9.13668C13.1815 9.25142 13.711 9.53453 14.1266 9.95023C14.5422 10.3659 14.8252 10.8955 14.9398 11.4721C15.0544 12.0486 14.9955 12.6462 14.7705 13.1892C14.5455 13.7323 14.1645 14.1964 13.6757 14.5229C13.1869 14.8494 12.6122 15.0236 12.0244 15.0235C11.2362 15.0234 10.4804 14.7102 9.9231 14.1528C9.36583 13.5954 9.05281 12.8395 9.05287 12.0513ZM7.44604 12.0513C7.44604 12.9568 7.71456 13.842 8.21764 14.5949C8.72071 15.3478 9.43575 15.9346 10.2723 16.2811C11.1089 16.6276 12.0295 16.7183 12.9176 16.5417C13.8057 16.365 14.6215 15.9289 15.2618 15.2887C15.9021 14.6484 16.3381 13.8326 16.5148 12.9445C16.6914 12.0564 16.6008 11.1358 16.2542 10.2992C15.9077 9.46262 15.3209 8.74758 14.568 8.24451C13.8151 7.74143 12.9299 7.47291 12.0244 7.47291C11.4232 7.47288 10.8278 7.59129 10.2723 7.82136C9.71682 8.05143 9.21209 8.38867 8.78694 8.81381C8.3618 9.23896 8.02456 9.74369 7.79449 10.2992C7.56442 10.8547 7.44601 11.45 7.44604 12.0513ZM15.714 7.2915C15.714 7.50311 15.7766 7.70999 15.8941 7.88598C16.0116 8.06197 16.1786 8.19917 16.3741 8.28024C16.5695 8.3613 16.7846 8.38259 16.9922 8.34139C17.1997 8.3002 17.3904 8.19839 17.5401 8.04883C17.6898 7.89927 17.7918 7.70868 17.8332 7.50116C17.8745 7.29364 17.8534 7.07852 17.7725 6.88298C17.6917 6.68745 17.5546 6.5203 17.3787 6.40267C17.2028 6.28503 16.996 6.22219 16.7844 6.2221C16.5008 6.22222 16.2288 6.33492 16.0282 6.53543C15.8276 6.73594 15.7148 7.00787 15.7145 7.2915H15.714ZM8.42275 19.3089C7.85737 19.3027 7.29727 19.1992 6.76698 19.003C6.38241 18.8548 6.03314 18.6277 5.74165 18.3363C5.45016 18.045 5.2229 17.6958 5.07451 17.3113C4.87822 16.781 4.77475 16.2209 4.76863 15.6555C4.72534 14.7157 4.71687 14.4334 4.71687 12.0524C4.71687 9.67151 4.72628 9.38986 4.76863 8.44915C4.77549 7.88383 4.87894 7.32384 5.07451 6.79339C5.22273 6.4087 5.44992 6.05934 5.74143 5.76783C6.03293 5.47632 6.38229 5.24913 6.76698 5.10092C7.29724 4.90463 7.85736 4.80116 8.42275 4.79504C9.36252 4.75174 9.64487 4.74327 12.0249 4.74327C14.4049 4.74327 14.6875 4.75245 15.6282 4.79527C16.1935 4.80213 16.7535 4.90558 17.2839 5.10115C17.6686 5.24938 18.018 5.47657 18.3095 5.76808C18.601 6.05959 18.8282 6.40894 18.9764 6.79362C19.1727 7.32389 19.2761 7.884 19.2823 8.44939C19.3256 9.39057 19.334 9.67151 19.334 12.0527C19.334 14.4339 19.3253 14.7153 19.2823 15.656C19.2757 16.2213 19.1722 16.7814 18.9764 17.3117C18.828 17.6962 18.6008 18.0454 18.3093 18.3368C18.0178 18.6282 17.6685 18.8553 17.2839 19.0035C16.7537 19.1998 16.1936 19.3033 15.6282 19.3094C14.6884 19.3527 14.406 19.3612 12.0249 19.3612C9.64369 19.3612 9.36228 19.3524 8.42275 19.3094V19.3089ZM8.34887 3.18963C7.60907 3.20417 6.8771 3.34419 6.18416 3.60374C5.59181 3.83277 5.05385 4.18305 4.60478 4.63212C4.15571 5.0812 3.80542 5.61915 3.57639 6.2115C3.31689 6.90445 3.17686 7.63641 3.16228 8.37621C3.11828 9.3268 3.1084 9.6308 3.1084 12.0522C3.1084 14.4736 3.11852 14.7774 3.16228 15.7282C3.17686 16.468 3.31688 17.2 3.57639 17.8929C3.80544 18.4853 4.15572 19.0232 4.60479 19.4723C5.05387 19.9214 5.59182 20.2716 6.18416 20.5007C6.87713 20.7601 7.60908 20.9001 8.34887 20.9148C9.29993 20.9581 9.60345 20.9687 12.0249 20.9687C14.4463 20.9687 14.75 20.9586 15.7009 20.9148C16.4407 20.9002 17.1726 20.7602 17.8656 20.5007C18.4579 20.2716 18.9959 19.9214 19.4449 19.4723C19.894 19.0232 20.2443 18.4853 20.4733 17.8929C20.7332 17.2001 20.8732 16.4681 20.8875 15.7282C20.9308 14.7769 20.9406 14.4736 20.9406 12.0522C20.9406 9.6308 20.9305 9.32704 20.8875 8.37621C20.8729 7.63641 20.7329 6.90444 20.4733 6.2115C20.2443 5.61927 19.8941 5.08139 19.4452 4.63233C18.9962 4.18327 18.4585 3.83293 17.8663 3.60374C17.1734 3.34403 16.4414 3.204 15.7016 3.18963C14.7507 3.1461 14.447 3.13574 12.026 3.13574C9.6051 3.13574 9.30063 3.14586 8.34934 3.18963" fill="white"/>
</g>
<defs>
<radialGradient id="paint0_radial_4230_64748" cx="0" cy="0" r="1" gradientUnits="userSpaceOnUse" gradientTransform="translate(1.55318 23.4744) scale(30.4711)">
<stop offset="0.09" stop-color="#FA8F21"/>
<stop offset="0.78" stop-color="#D82D7E"/>
</radialGradient>
<radialGradient id="paint1_radial_4230_64748" cx="0" cy="0" r="1" gradientUnits="userSpaceOnUse" gradientTransform="translate(16.624 22.7035) scale(26.8148)">
<stop offset="0.64" stop-color="#8C3AAA" stop-opacity="0"/>
<stop offset="1" stop-color="#8C3AAA"/>
</radialGradient>
<clipPath id="clip0_4230_64748">
<rect width="24" height="24" fill="white"/>
</clipPath>
</defs>
</svg>
