<svg width="36" height="29" viewBox="0 0 36 29" fill="none" xmlns="http://www.w3.org/2000/svg">
<path fill-rule="evenodd" clip-rule="evenodd" d="M29.8065 1.43342C30.41 0.835152 31.2248 0.498451 32.0746 0.496106C32.9244 0.493761 33.741 0.825962 34.3478 1.42089C34.9546 2.01581 35.3029 2.82567 35.3174 3.67535C35.3319 4.52504 35.0114 5.34628 34.4252 5.96154L17.2097 27.4809C16.9138 27.7996 16.5567 28.0554 16.1597 28.2329C15.7628 28.4104 15.3341 28.506 14.8993 28.5141C14.4645 28.5221 14.0326 28.4424 13.6293 28.2797C13.226 28.117 12.8597 27.8747 12.5522 27.5672L1.14564 16.1563C0.827866 15.8602 0.572988 15.5031 0.396211 15.1064C0.219433 14.7096 0.124377 14.2813 0.116714 13.847C0.109052 13.4128 0.18894 12.9814 0.351612 12.5787C0.514284 12.1759 0.756408 11.8101 1.06354 11.5029C1.37067 11.1958 1.73651 10.9537 2.13925 10.791C2.54199 10.6283 2.97336 10.5485 3.40764 10.5561C3.84193 10.5638 4.27021 10.6588 4.66696 10.8356C5.06371 11.0124 5.42078 11.2673 5.71689 11.585L14.7473 20.6111L29.7246 1.52829C29.7513 1.49489 29.7801 1.4632 29.8108 1.43342H29.8065Z" fill="#3C9A67"/>
</svg>
