
<svg width="34" height="26" viewBox="0 0 34 26" fill="none" xmlns="http://www.w3.org/2000/svg">
<path d="M30.5 1C28.835 0.475 27.005 0.25 25.25 0.25C22.325 0.25 19.175 0.85 17 2.5C14.825 0.85 11.675 0.25 8.75 0.25C5.825 0.25 2.675 0.85 0.5 2.5V24.475C0.5 24.85 0.875 25.225 1.25 25.225C1.4 25.225 1.475 25.15 1.625 25.15C3.65 24.175 6.575 23.5 8.75 23.5C11.675 23.5 14.825 24.1 17 25.75C19.025 24.475 22.7 23.5 25.25 23.5C27.725 23.5 30.275 23.95 32.375 25.075C32.525 25.15 32.6 25.15 32.75 25.15C33.125 25.15 33.5 24.775 33.5 24.4V2.5C32.6 1.825 31.625 1.375 30.5 1ZM3.5 21.25V4C5.15 3.475 6.95 3.25 8.75 3.25C10.76 3.25 13.445 3.865 15.5 4.735V21.985C13.445 21.115 10.76 20.5 8.75 20.5C6.95 20.5 5.15 20.725 3.5 21.25ZM30.5 21.25C28.85 20.725 27.05 20.5 25.25 20.5C23.24 20.5 20.555 21.115 18.5 21.985V4.735C20.555 3.85 23.24 3.25 25.25 3.25C27.05 3.25 28.85 3.475 30.5 4V21.25Z" fill="#F586E6"/>
<path opacity="0.3" d="M15.5 4.735C13.445 3.865 10.76 3.25 8.75 3.25C6.95 3.25 5.15 3.475 3.5 4V21.25C5.15 20.725 6.95 20.5 8.75 20.5C10.76 20.5 13.445 21.115 15.5 21.985V4.735Z" fill="#F586E6"/>
<path d="M25.25 9.25C26.57 9.25 27.845 9.385 29 9.64V7.36C27.815 7.135 26.54 7 25.25 7C23.33 7 21.56 7.24 20 7.705V10.06C21.485 9.535 23.27 9.25 25.25 9.25Z" fill="#F586E6"/>
<path d="M25.25 13.2402C26.57 13.2402 27.845 13.3752 29 13.6302V11.3502C27.815 11.1252 26.54 10.9902 25.25 10.9902C23.33 10.9902 21.56 11.2302 20 11.6952V14.0502C21.485 13.5402 23.27 13.2402 25.25 13.2402Z" fill="#F586E6"/>
<path d="M25.25 17.2451C26.57 17.2451 27.845 17.3801 29 17.6351V15.3551C27.815 15.1301 26.54 14.9951 25.25 14.9951C23.33 14.9951 21.56 15.2351 20 15.7001V18.0551C21.485 17.5301 23.27 17.2451 25.25 17.2451Z" fill="#F586E6"/>
</svg>
