
<svg width="30" height="30" viewBox="0 0 30 30" fill="none" xmlns="http://www.w3.org/2000/svg">
<path d="M16.4166 7.91634H13.5833V13.583H7.91659V16.4163H13.5833V22.083H16.4166V16.4163H22.0833V13.583H16.4166V7.91634ZM14.9999 0.833008C7.17992 0.833008 0.833252 7.17967 0.833252 14.9997C0.833252 22.8197 7.17992 29.1663 14.9999 29.1663C22.8199 29.1663 29.1666 22.8197 29.1666 14.9997C29.1666 7.17967 22.8199 0.833008 14.9999 0.833008ZM14.9999 26.333C8.75242 26.333 3.66659 21.2472 3.66659 14.9997C3.66659 8.75217 8.75242 3.66634 14.9999 3.66634C21.2474 3.66634 26.3333 8.75217 26.3333 14.9997C26.3333 21.2472 21.2474 26.333 14.9999 26.333Z" fill="white"/>
</svg>