<svg width="70" height="69" viewBox="0 0 70 69" fill="none" xmlns="http://www.w3.org/2000/svg">
<path opacity="0.3" fill-rule="evenodd" clip-rule="evenodd" d="M35 64.6875C43.0062 64.6875 50.6845 61.507 56.3458 55.8458C62.007 50.1845 65.1875 42.5062 65.1875 34.5C65.1875 26.4938 62.007 18.8155 56.3458 13.1542C50.6845 7.49296 43.0062 4.3125 35 4.3125C26.9938 4.3125 19.3155 7.49296 13.6542 13.1542C7.99296 18.8155 4.8125 26.4938 4.8125 34.5C4.8125 42.5062 7.99296 50.1845 13.6542 55.8458C19.3155 61.507 26.9938 64.6875 35 64.6875ZM35 69C44.15 69 52.9252 65.3652 59.3952 58.8952C65.8652 52.4252 69.5 43.65 69.5 34.5C69.5 25.35 65.8652 16.5748 59.3952 10.1048C52.9252 3.63481 44.15 0 35 0C25.85 0 17.0748 3.63481 10.6048 10.1048C4.13481 16.5748 0.5 25.35 0.5 34.5C0.5 43.65 4.13481 52.4252 10.6048 58.8952C17.0748 65.3652 25.85 69 35 69Z" fill="#3C9A67"/>
</svg>
