
<svg width="24" height="25" viewBox="0 0 24 25" fill="none" xmlns="http://www.w3.org/2000/svg">
<path d="M11.8685 24.0261C18.2601 24.0261 23.4474 18.8387 23.4474 12.4471C23.4474 6.05553 18.2601 0.868164 11.8685 0.868164C5.47692 0.868164 0.289551 6.05553 0.289551 12.4471C0.289551 18.8387 5.47692 24.0261 11.8685 24.0261ZM11.8685 3.18395C16.9748 3.18395 21.1317 7.3408 21.1317 12.4471C21.1317 17.5534 16.9748 21.7103 11.8685 21.7103C6.76218 21.7103 2.60534 17.5534 2.60534 12.4471C2.60534 7.3408 6.76218 3.18395 11.8685 3.18395ZM9.55271 7.23658V17.6576L16.5001 12.4471L9.55271 7.23658Z" fill="#7B61FF"/>
</svg>
