<svg width="314" height="177" viewBox="0 0 314 177" fill="none" xmlns="http://www.w3.org/2000/svg">
<path d="M58.1159 108.961C57.8769 108.961 57.6381 108.976 57.4011 109.007C57.1116 107.059 56.1319 105.28 54.6405 103.994C53.149 102.708 51.2451 102 49.2756 102C47.3061 102 45.4021 102.708 43.9107 103.994C42.4192 105.28 41.4395 107.059 41.15 109.007C40.4124 108.91 39.6626 108.965 38.947 109.169C38.2314 109.373 37.5653 109.721 36.9899 110.193C36.4144 110.665 35.942 111.25 35.6017 111.911C35.2615 112.573 35.0607 113.298 35.0118 114.04C34.9628 114.783 35.0668 115.527 35.3173 116.228C35.5678 116.929 35.9594 117.57 36.4679 118.114C36.9764 118.657 37.591 119.09 38.2737 119.386C38.9563 119.682 39.6925 119.835 40.4365 119.835H58.1159C59.5579 119.835 60.9409 119.262 61.9606 118.242C62.9802 117.223 63.5531 115.84 63.5531 114.398C63.5531 112.956 62.9802 111.573 61.9606 110.553C60.9409 109.533 59.5579 108.961 58.1159 108.961Z" fill="white" fill-opacity="0.1"/>
<path d="M277.098 86.8792C276.663 86.8791 276.228 86.9082 275.796 86.9661C275.269 83.3615 273.485 80.0692 270.769 77.6892C268.052 75.3093 264.585 74 260.998 74C257.411 74 253.944 75.3093 251.228 77.6892C248.512 80.0692 246.727 83.3615 246.2 86.9661C244.857 86.7856 243.491 86.8871 242.188 87.2644C240.885 87.6418 239.672 88.2869 238.624 89.1598C237.576 90.0327 236.716 91.1149 236.096 92.3393C235.476 93.5637 235.111 94.9043 235.021 96.2781C234.932 97.6519 235.122 99.0297 235.578 100.326C236.034 101.623 236.747 102.81 237.673 103.815C238.599 104.82 239.719 105.621 240.962 106.169C242.205 106.717 243.546 107 244.901 107H277.098C279.724 107 282.243 105.94 284.1 104.053C285.957 102.167 287 99.6078 287 96.9396C287 94.2714 285.957 91.7125 284.1 89.8258C282.243 87.9391 279.724 86.8792 277.098 86.8792Z" fill="white" fill-opacity="0.1"/>
<path d="M307.716 39.1959C307.44 39.1958 307.164 39.2143 306.89 39.2511C306.555 36.9573 305.423 34.8622 303.699 33.3477C301.976 31.8332 299.775 31 297.499 31C295.223 31 293.022 31.8332 291.298 33.3477C289.575 34.8622 288.442 36.9573 288.108 39.2511C287.255 39.1363 286.389 39.2009 285.562 39.441C284.735 39.6811 283.965 40.0916 283.3 40.6471C282.635 41.2026 282.089 41.8913 281.695 42.6704C281.302 43.4496 281.07 44.3027 281.014 45.177C280.957 46.0512 281.077 46.928 281.367 47.753C281.656 48.578 282.109 49.3337 282.697 49.9733C283.284 50.6129 283.995 51.1228 284.784 51.4714C285.572 51.82 286.423 51.9999 287.283 52H307.716C309.383 52 310.981 51.3255 312.159 50.1249C313.338 48.9243 314 47.2959 314 45.5979C314 43.9 313.338 42.2716 312.159 41.071C310.981 39.8704 309.383 39.1959 307.716 39.1959Z" fill="white" fill-opacity="0.1"/>
<path d="M120.574 45.757C120.247 45.7569 119.921 45.7789 119.597 45.8228C119.202 43.092 117.864 40.5979 115.826 38.7949C113.789 36.9919 111.189 36 108.499 36C105.809 36 103.208 36.9919 101.171 38.7949C99.1337 40.5979 97.7955 43.092 97.4002 45.8228C96.3927 45.686 95.3685 45.763 94.3911 46.0488C93.4137 46.3347 92.5038 46.8234 91.7179 47.4847C90.932 48.146 90.2867 48.9658 89.8219 49.8934C89.3572 50.821 89.0829 51.8366 89.0161 52.8773C88.9492 53.9181 89.0913 54.9619 89.4334 55.944C89.7755 56.9262 90.3104 57.8258 91.005 58.5872C91.6996 59.3486 92.539 59.9557 93.4714 60.3707C94.4038 60.7857 95.4093 60.9999 96.4257 61H120.574C122.543 61 124.432 60.197 125.825 58.7677C127.218 57.3384 128 55.3999 128 53.3785C128 51.3572 127.218 49.4186 125.825 47.9893C124.432 46.56 122.543 45.757 120.574 45.757Z" fill="white" fill-opacity="0.1"/>
<path d="M210.233 66.4624L193.221 53.102L197.619 45.1265L210.233 66.4624Z" fill="white" fill-opacity="0.1"/>
<path d="M196.734 44.8055L189.382 42.3511L210.234 66.4623L207.057 48.538L196.734 44.8055Z" fill="white" fill-opacity="0.1"/>
<g style="mix-blend-mode:multiply" opacity="0.5">
<path d="M197.841 45.2065L208.265 63.1335L201.266 46.4445L197.841 45.2065Z" fill="white" fill-opacity="0.1"/>
</g>
<path d="M37.7041 177C36.1882 175.345 34.7043 173.636 33.2899 171.92L34.5278 170.901C35.9235 172.591 37.3886 174.278 38.8886 175.914L37.7041 177ZM29.1484 166.615C27.8116 164.8 26.5175 162.939 25.309 161.086L26.6458 160.209C27.8383 162.038 29.111 163.875 30.4318 165.663L29.1484 166.615ZM21.8038 155.335C20.6862 153.367 19.6328 151.362 18.6676 149.373L20.1114 148.675C21.0605 150.632 22.0979 152.605 23.1995 154.557L21.8038 155.335ZM15.9458 143.21C15.1036 141.108 14.3416 138.972 13.6732 136.863L15.2052 136.379C15.8576 138.451 16.6089 140.55 17.435 142.614L15.9458 143.21ZM11.9112 130.35C11.4059 128.144 10.9915 125.911 10.6813 123.711L12.2722 123.486C12.5743 125.641 12.9807 127.831 13.4753 129.991L11.9112 130.35ZM10.0396 116.981C9.97548 115.73 9.94339 114.463 9.94339 113.214C9.94339 112.219 9.96478 111.214 10.0049 110.222L11.6091 110.289C11.569 111.257 11.5476 112.241 11.5476 113.214C11.5476 114.436 11.5797 115.676 11.6412 116.898L10.0396 116.981ZM12.1652 103.693L10.561 103.503C10.8284 101.292 11.1572 99.0543 11.5476 96.8485L13.1277 97.1158C12.7427 99.3136 12.4139 101.519 12.1545 103.701L12.1652 103.693ZM14.4753 90.6295L12.9138 90.2632C13.4165 88.1243 13.9833 85.9265 14.6196 83.7582L16.1624 84.2047C15.5287 86.3543 14.9619 88.5146 14.4646 90.6375L14.4753 90.6295ZM18.1676 77.8734L16.649 77.352C17.3575 75.2933 18.1355 73.1731 18.967 71.0475L20.4616 71.6304C19.6274 73.7453 18.8628 75.8441 18.1569 77.8814L18.1676 77.8734ZM23.0016 65.4809L21.5311 64.8419C22.3733 62.8955 23.277 60.8956 24.2876 58.7272L25.7395 59.4063C24.7261 61.5667 23.8305 63.5532 22.9909 65.489L23.0016 65.4809ZM28.6163 53.3826L27.1512 52.6901C27.7287 51.4976 28.3008 50.3257 28.8677 49.1742C29.2794 48.3347 29.6849 47.504 30.0842 46.6823L31.528 47.3855C31.1269 48.2054 30.7196 49.037 30.3061 49.8801L28.6163 53.3826ZM196.055 42.2895C194.692 40.5623 193.25 38.8592 191.777 37.2229L192.967 36.1534C194.464 37.8164 195.927 39.5463 197.314 41.2976L196.055 42.2895ZM18.9055 42.0435C16.5827 41.9162 14.2979 41.3992 12.1465 40.5142L12.7695 39.0383C14.7514 39.8552 16.8562 40.3341 18.9965 40.4553L18.9055 42.0435ZM25.7475 41.5836L25.4427 40.0088C27.5747 39.5866 29.6565 38.9413 31.6536 38.0838L32.2819 39.5597C30.1807 40.4614 27.9905 41.1398 25.7475 41.5836ZM34.4262 41.3403L32.9691 40.6666C34.0385 38.3726 34.8968 36.3887 35.6187 34.5759L37.1079 35.1722C36.3753 37.001 35.4984 39.0169 34.4262 41.3377V41.3403ZM6.39008 36.6347C4.72202 35.0193 3.33498 33.137 2.28599 31.0654L3.71641 30.3382C4.68475 32.2521 5.96615 33.9908 7.50768 35.4823L6.39008 36.6347ZM38.2763 36.2844L37.378 34.9476C39.184 33.7259 40.873 32.3395 42.4232 30.8061L43.5515 31.9477C41.9299 33.5521 40.164 35.0037 38.2763 36.2844ZM187.168 32.4504C185.593 30.913 183.959 29.4051 182.278 27.9693L183.323 26.7528C185.021 28.2099 186.692 29.7393 188.288 31.298L187.168 32.4504ZM39.3137 28.7741L37.7683 28.3409C38.3747 26.254 38.7697 24.1115 38.9474 21.9455L40.5516 22.0605C40.3652 24.3342 39.9504 26.5834 39.3137 28.7741ZM48.2732 27.2634L47.185 26.0763C48.8239 24.5657 50.5538 23.0979 52.3265 21.7102L53.3157 22.9722C51.5752 24.3411 49.8774 25.7822 48.2732 27.2634ZM0.211224 24.4721C0.0700312 23.4865 -0.000555477 22.492 3.29141e-06 21.4963C0.0005821 20.1748 0.125006 18.8563 0.371644 17.558L1.94644 17.8575C1.54637 19.9649 1.49668 22.1239 1.79939 24.2475L0.211224 24.4721ZM177.112 23.8198C175.356 22.4829 173.532 21.2103 171.693 19.9991L172.572 18.6622C174.444 19.8895 176.294 21.1942 178.077 22.5391L177.112 23.8198ZM58.7005 19.1248L57.8155 17.7879C59.6684 16.5607 61.6068 15.3816 63.5746 14.2801L64.358 15.6811C62.4116 16.7479 60.5079 17.9083 58.7005 19.1248ZM166.051 16.5447C164.137 15.4538 162.164 14.4058 160.188 13.4513L160.888 12.0101C162.896 12.986 164.899 14.0421 166.845 15.149L166.051 16.5447ZM38.4715 15.5741C37.9511 13.4962 37.0745 11.5242 35.8807 9.74554L37.2175 8.86055C38.5074 10.7945 39.4569 12.9349 40.0249 15.1891L38.4715 15.5741ZM70.2561 12.6598L69.577 11.2054C71.5903 10.2669 73.6757 9.37924 75.7826 8.56912L76.3574 10.0664C74.2746 10.8524 72.2213 11.7241 70.2428 12.6491L70.2561 12.6598ZM4.17361 11.8577L2.78063 11.0556C3.17811 10.3604 3.61461 9.68825 4.08805 9.04236C4.98257 7.82091 6.00232 6.69631 7.13069 5.6869L8.20016 6.87936C7.15531 7.81591 6.21005 8.85794 5.37944 9.98884C4.9366 10.5888 4.52864 11.2136 4.15757 11.8604L4.17361 11.8577ZM154.135 10.7321C152.1 9.89794 150.009 9.12792 147.924 8.42207L148.434 6.90075C150.552 7.61195 152.675 8.40068 154.742 9.24824L154.135 10.7321ZM82.6112 7.89536L82.1352 6.36334C84.2742 5.70562 86.4479 5.10672 88.6349 4.58L89.0092 6.13875C86.8569 6.64408 84.702 7.23496 82.6112 7.89536ZM141.56 6.53713C139.435 5.97299 137.261 5.46766 135.103 5.04789L135.411 3.4731C137.606 3.90356 139.812 4.41423 141.972 4.98373L141.56 6.53713ZM31.6269 4.90084C29.9997 3.5415 28.094 2.5558 26.0443 2.01328L26.456 0.462544C28.733 1.06446 30.8497 2.15981 32.6562 3.67095L31.6269 4.90084ZM95.5063 4.77518L95.2389 3.19504C97.434 2.81003 99.6772 2.48652 101.907 2.23252L102.089 3.83672C99.8751 4.07735 97.6693 4.39552 95.5063 4.77518ZM128.558 3.97308C126.379 3.68967 124.16 3.47043 121.96 3.32605L122.064 1.72185C124.299 1.8689 126.553 2.09081 128.767 2.37957L128.558 3.97308ZM13.5529 3.35011L12.8818 1.89296C14.9834 0.914754 17.2268 0.27584 19.5285 0L19.713 1.6042C17.5801 1.85626 15.5008 2.44558 13.5529 3.35011ZM108.698 3.26723L108.61 1.66303C110.749 1.54538 112.925 1.48389 115.078 1.48389H115.345V3.08809H115.078C112.949 3.08274 110.805 3.14959 108.698 3.26723Z" fill="white" fill-opacity="0.1"/>
</svg>
