
<svg width="49" height="48" viewBox="0 0 49 48" fill="none" xmlns="http://www.w3.org/2000/svg">
<rect x="0.916016" y="0.333008" width="47.6666" height="47.6666" rx="6.9756" fill="#9EA4C1"/>
<path d="M31.7645 24.542C31.7982 28.2368 34.9484 29.4663 34.9833 29.4819C34.9567 29.5686 34.48 31.234 33.3236 32.9543C32.324 34.4416 31.2866 35.9234 29.6523 35.9541C28.0464 35.9842 27.53 34.9847 25.6941 34.9847C23.8587 34.9847 23.285 35.9235 21.7649 35.9843C20.1873 36.0451 18.986 34.376 17.9782 32.8942C15.9186 29.863 14.3447 24.3289 16.4581 20.5932C17.508 18.7381 19.3842 17.5634 21.4206 17.5332C22.9697 17.5031 24.4318 18.5941 25.3788 18.5941C26.3252 18.5941 28.102 17.2821 29.9699 17.4748C30.7519 17.5079 32.9469 17.7964 34.3563 19.8966C34.2428 19.9683 31.7373 21.4531 31.7645 24.542ZM28.7465 15.4694C29.584 14.4374 30.1477 13.0008 29.9939 11.5713C28.7867 11.6207 27.3269 12.3902 26.461 13.4217C25.685 14.3351 25.0054 15.797 25.1887 17.1982C26.5343 17.3042 27.9089 16.5021 28.7465 15.4694Z" fill="black"/>
</svg>
