
<svg width="48" height="48" viewBox="0 0 48 48" fill="none" xmlns="http://www.w3.org/2000/svg">
<rect x="0.160095" y="0.333008" width="47.6666" height="47.6666" rx="6.9756" fill="#9EA4C1"/>
<path d="M33.1489 11.959H14.8379C13.1548 11.959 11.7861 13.3277 11.7861 15.0108V33.3218C11.7861 35.0048 13.1548 36.3736 14.8379 36.3736H33.1489C34.8319 36.3736 36.2007 35.0048 36.2007 33.3218V15.0108C36.2007 13.3277 34.8319 11.959 33.1489 11.959Z" fill="#1976D2"/>
<path d="M32.3859 24.1667H28.5711V21.1148C28.5711 20.2725 29.2547 20.3519 30.097 20.3519H31.6229V16.5371H28.5711C26.0427 16.5371 23.9934 18.5864 23.9934 21.1148V24.1667H20.9415V27.9815H23.9934V36.374H28.5711V27.9815H30.86L32.3859 24.1667Z" fill="#FAFAFA"/>
</svg>
