
<svg width="49" height="48" viewBox="0 0 49 48" fill="none" xmlns="http://www.w3.org/2000/svg">
<rect x="0.997559" y="0.333008" width="47.6666" height="47.6666" rx="6.9756" fill="#9EA4C1"/>
<g clip-path="url(#clip0_2735_9209)">
<path d="M24.8308 11.959C21.9322 11.9591 19.1281 12.9906 16.9205 14.869C14.7128 16.7474 13.2455 19.35 12.7812 22.2112C12.3169 25.0724 12.8858 28.0055 14.3862 30.4856C15.8865 32.9657 18.2204 34.831 20.9703 35.7478C21.5806 35.8546 21.8095 35.4884 21.8095 35.1679C21.8095 34.878 21.7943 33.9167 21.7943 32.8944C18.7272 33.4589 17.9337 32.1467 17.6896 31.4601C17.4187 30.7922 16.9892 30.2004 16.4383 29.7358C16.0111 29.5069 15.4007 28.9423 16.4231 28.927C16.8134 28.9694 17.1878 29.1052 17.5146 29.323C17.8413 29.5409 18.1107 29.8342 18.2999 30.1782C18.4669 30.4782 18.6914 30.7422 18.9606 30.9552C19.2297 31.1683 19.5383 31.3261 19.8686 31.4196C20.1989 31.5132 20.5444 31.5406 20.8853 31.5004C21.2262 31.4602 21.5558 31.3532 21.8553 31.1853C21.9081 30.5648 22.1847 29.9845 22.6335 29.5527C19.9174 29.2475 17.0792 28.1946 17.0792 23.5254C17.062 22.3121 17.5097 21.1383 18.3304 20.2447C17.9572 19.1902 18.0009 18.0331 18.4525 17.0098C18.4525 17.0098 19.4748 16.6893 21.8095 18.261C23.807 17.7116 25.9157 17.7116 27.9131 18.261C30.2477 16.6741 31.2701 17.0098 31.2701 17.0098C31.7218 18.0331 31.7654 19.1902 31.3922 20.2447C32.2154 21.1368 32.6634 22.3116 32.6434 23.5254C32.6434 28.2098 29.7899 29.2475 27.0739 29.5527C27.3652 29.848 27.5896 30.2025 27.7317 30.5921C27.8739 30.9818 27.9306 31.3975 27.8979 31.811C27.8979 33.4438 27.8826 34.756 27.8826 35.168C27.8826 35.4885 28.1115 35.8699 28.7218 35.7478C31.4668 34.8236 33.794 32.9539 35.288 30.4725C36.782 27.9911 37.3455 25.0596 36.8779 22.2011C36.4104 19.3427 34.9422 16.7434 32.7355 14.8674C30.5288 12.9913 27.7272 11.9605 24.8308 11.959Z" fill="black"/>
</g>
<defs>
<clipPath id="clip0_2735_9209">
<rect width="24.4146" height="24.4146" fill="white" transform="translate(12.6235 11.959)"/>
</clipPath>
</defs>
</svg>
