
<svg width="47" height="48" viewBox="0 0 47 48" fill="none" xmlns="http://www.w3.org/2000/svg">
<rect x="0.417419" y="0.954102" width="46.4906" height="46.4241" rx="6.9756" fill="#9EA4C1"/>
<path d="M35.2819 24.4234C35.2819 23.4707 35.2028 22.7756 35.0316 22.0547H23.8998V26.3544H30.4339C30.3022 27.4229 29.5909 29.0321 28.01 30.1134L27.9878 30.2573L31.5075 32.9218L31.7513 32.9456C33.9908 30.9245 35.2819 27.9506 35.2819 24.4234Z" fill="#4285F4"/>
<path d="M23.9 35.7517C27.1011 35.7517 29.7886 34.7217 31.7515 32.9453L28.0102 30.1131C27.009 30.7954 25.6653 31.2717 23.9 31.2717C20.7646 31.2717 18.1036 29.2506 17.155 26.457L17.0159 26.4686L13.3561 29.2364L13.3082 29.3664C15.2579 33.1512 19.2628 35.7517 23.9 35.7517Z" fill="#0F9D58"/>
<path d="M17.1548 26.458C16.9045 25.7371 16.7596 24.9646 16.7596 24.1665C16.7596 23.3683 16.9045 22.5959 17.1416 21.875L17.135 21.7214L13.4293 18.9092L13.308 18.9655C12.5045 20.5361 12.0434 22.2998 12.0434 24.1665C12.0434 26.0331 12.5045 27.7967 13.308 29.3673L17.1548 26.458Z" fill="#F4B400"/>
<path d="M23.9 17.06C26.1263 17.06 27.6281 17.9997 28.4844 18.7851L31.8305 15.5925C29.7755 13.7258 27.1011 12.5801 23.9 12.5801C19.2628 12.5801 15.2579 15.1805 13.3082 18.9652L17.1418 21.8747C18.1036 19.0811 20.7646 17.06 23.9 17.06Z" fill="#DB4437"/>
</svg>
