
<svg width="48" height="48" viewBox="0 0 48 48" fill="none" xmlns="http://www.w3.org/2000/svg">
<rect x="0.0787964" y="0.333008" width="47.6666" height="47.6666" rx="6.9756" fill="#9EA4C1"/>
<g clip-path="url(#clip0_2735_9204)">
<path d="M34.763 11.959H13.0611C12.312 11.959 11.7048 12.5663 11.7048 13.3154V35.0172C11.7048 35.7663 12.312 36.3736 13.0611 36.3736H34.763C35.5121 36.3736 36.1194 35.7663 36.1194 35.0172V13.3154C36.1194 12.5663 35.5121 11.959 34.763 11.959Z" fill="#117EB8"/>
<path fill-rule="evenodd" clip-rule="evenodd" d="M16.16 21.4019H19.4231V31.9009H16.16V21.4019ZM17.792 16.183C18.8354 16.183 19.6831 17.0307 19.6831 18.0741C19.6831 19.1185 18.8354 19.9665 17.792 19.9665C17.5406 19.9713 17.2907 19.9259 17.057 19.833C16.8233 19.74 16.6105 19.6014 16.431 19.4253C16.2515 19.2492 16.1089 19.039 16.0116 18.8071C15.9142 18.5752 15.8641 18.3262 15.8641 18.0747C15.8641 17.8233 15.9142 17.5743 16.0116 17.3424C16.1089 17.1105 16.2515 16.9003 16.431 16.7242C16.6105 16.5481 16.8233 16.4095 17.057 16.3165C17.2907 16.2236 17.5406 16.1782 17.792 16.183ZM21.4698 21.4016H24.5996V22.8363H24.643C25.0788 22.0109 26.1432 21.1408 27.7305 21.1408C31.0346 21.1408 31.6449 23.3154 31.6449 26.1424V31.9009H28.3839V26.7952C28.3839 25.5778 28.3615 24.0116 26.6884 24.0116C24.9906 24.0116 24.7298 25.3378 24.7298 26.7073V31.9009H21.4695V21.4019L21.4698 21.4016Z" fill="white"/>
</g>
<defs>
<clipPath id="clip0_2735_9204">
<rect width="24.4146" height="24.4146" fill="white" transform="translate(11.7048 11.959)"/>
</clipPath>
</defs>
</svg>
