<svg width="14" height="14" viewBox="0 0 14 14" fill="none" xmlns="http://www.w3.org/2000/svg">
<path fill-rule="evenodd" clip-rule="evenodd" d="M2.99124 2.99061C2.46467 3.51713 2.04697 4.14221 1.76199 4.83016C1.47701 5.51812 1.33033 6.25547 1.33033 7.00011C1.33033 7.74475 1.47701 8.48211 1.76199 9.17006C2.04697 9.85801 2.46467 10.4831 2.99124 11.0096C3.06502 11.086 3.10584 11.1883 3.10492 11.2945C3.10399 11.4007 3.0614 11.5023 2.98631 11.5773C2.91122 11.6524 2.80964 11.695 2.70345 11.696C2.59726 11.6969 2.49496 11.6561 2.41857 11.5823C1.81682 10.9806 1.33947 10.2662 1.0138 9.47998C0.688129 8.69377 0.520508 7.85111 0.520508 7.00011C0.520508 6.14912 0.688129 5.30646 1.0138 4.52024C1.33947 3.73403 1.81682 3.01967 2.41857 2.41794C2.49496 2.34417 2.59726 2.30334 2.70345 2.30427C2.80964 2.30519 2.91122 2.34778 2.98631 2.42287C3.0614 2.49796 3.10399 2.59954 3.10492 2.70573C3.10584 2.81192 3.06502 2.91423 2.99124 2.99061ZM4.71006 4.70943C4.10266 5.31702 3.76144 6.14098 3.76144 7.00011C3.76144 7.85924 4.10266 8.6832 4.71006 9.29079C4.78611 9.36684 4.82884 9.46998 4.82884 9.57753C4.82884 9.68508 4.78611 9.78822 4.71006 9.86427C4.63402 9.94032 4.53087 9.98304 4.42332 9.98304C4.31578 9.98304 4.21263 9.94032 4.13658 9.86427C3.76039 9.48818 3.46198 9.04166 3.25838 8.55023C3.05478 8.05879 2.94999 7.53205 2.94999 7.00011C2.94999 6.46817 3.05478 5.94143 3.25838 5.45C3.46198 4.95856 3.76039 4.51204 4.13658 4.13595C4.21263 4.0599 4.31578 4.01718 4.42332 4.01718C4.53087 4.01718 4.63402 4.0599 4.71006 4.13595C4.78611 4.212 4.82884 4.31514 4.82884 4.42269C4.82884 4.53024 4.78611 4.63338 4.71006 4.70943V4.70943ZM9.29142 4.13595C9.32905 4.09823 9.37374 4.06831 9.42294 4.04789C9.47214 4.02748 9.52489 4.01697 9.57817 4.01697C9.63144 4.01697 9.68418 4.02748 9.73339 4.04789C9.78259 4.06831 9.82728 4.09823 9.86491 4.13595C10.2411 4.51204 10.5395 4.95856 10.7431 5.45C10.9467 5.94143 11.0515 6.46817 11.0515 7.00011C11.0515 7.53205 10.9467 8.05879 10.7431 8.55023C10.5395 9.04166 10.2411 9.48818 9.86491 9.86427C9.82725 9.90193 9.78255 9.9318 9.73335 9.95218C9.68415 9.97256 9.63142 9.98304 9.57817 9.98304C9.52491 9.98304 9.47218 9.97256 9.42298 9.95218C9.37378 9.9318 9.32908 9.90193 9.29142 9.86427C9.25377 9.82662 9.2239 9.78191 9.20352 9.73271C9.18314 9.68352 9.17265 9.63078 9.17265 9.57753C9.17265 9.52428 9.18314 9.47155 9.20352 9.42235C9.2239 9.37315 9.25377 9.32845 9.29142 9.29079C9.89883 8.6832 10.2401 7.85924 10.2401 7.00011C10.2401 6.14098 9.89883 5.31702 9.29142 4.70943C9.25371 4.67181 9.22379 4.62712 9.20337 4.57791C9.18295 4.52871 9.17244 4.47596 9.17244 4.42269C9.17244 4.36942 9.18295 4.31667 9.20337 4.26747C9.22379 4.21826 9.25371 4.17357 9.29142 4.13595ZM11.0102 2.41875C11.0862 2.34282 11.1892 2.30017 11.2966 2.30017C11.404 2.30017 11.507 2.34282 11.5829 2.41875C12.798 3.63396 13.4806 5.28205 13.4806 7.00052C13.4806 8.71898 12.798 10.3671 11.5829 11.5823C11.5065 11.6561 11.4042 11.6969 11.298 11.696C11.1918 11.695 11.0903 11.6524 11.0152 11.5773C10.9401 11.5023 10.8975 11.4007 10.8966 11.2945C10.8956 11.1883 10.9365 11.086 11.0102 11.0096C11.5368 10.4831 11.9545 9.85801 12.2395 9.17006C12.5245 8.48211 12.6712 7.74475 12.6712 7.00011C12.6712 6.25547 12.5245 5.51812 12.2395 4.83016C11.9545 4.14221 11.5368 3.51713 11.0102 2.99061C10.9343 2.91466 10.8917 2.81167 10.8917 2.70427C10.8917 2.59688 10.9343 2.49389 11.0102 2.41794V2.41875Z" fill="#FFE8EC"/>
<path d="M8.62086 7.00049C8.62086 7.43014 8.45018 7.8422 8.14637 8.14601C7.84256 8.44982 7.43051 8.62049 7.00086 8.62049C6.57121 8.62049 6.15916 8.44982 5.85535 8.14601C5.55154 7.8422 5.38086 7.43014 5.38086 7.00049C5.38086 6.57084 5.55154 6.15879 5.85535 5.85498C6.15916 5.55117 6.57121 5.38049 7.00086 5.38049C7.43051 5.38049 7.84256 5.55117 8.14637 5.85498C8.45018 6.15879 8.62086 6.57084 8.62086 7.00049Z" fill="#FFE8EC"/>
</svg>