<svg width="21" height="22" viewBox="0 0 21 22" fill="none" xmlns="http://www.w3.org/2000/svg">
<g clip-path="url(#clip0_4916_36775)">
<path opacity="0.3" d="M13.0697 10.1194V3.96204H3.64844V11.1486L4.65052 10.1194H5.3614H13.0697Z" fill="#1D1148"/>
<path d="M13.9263 11.8787C14.3974 11.8787 14.7828 11.4829 14.7828 10.9991V3.08239C14.7828 2.59859 14.3974 2.20276 13.9263 2.20276H2.79203C2.32096 2.20276 1.93555 2.59859 1.93555 3.08239V15.3972L5.36147 11.8787H13.9263ZM3.64851 11.1486V3.96202H13.0698V10.1194H4.65059L3.64851 11.1486ZM19.0652 6.60091C19.0652 6.11711 18.6798 5.72128 18.2087 5.72128H16.4957V13.6379H5.36147V15.3972C5.36147 15.881 5.74689 16.2768 6.21796 16.2768H15.6393L19.0652 19.7954V6.60091Z" fill="#1D1148"/>
</g>
<defs>
<clipPath id="clip0_4916_36775">
<rect width="20.5556" height="21.1111" fill="white" transform="translate(0.222656 0.443481)"/>
</clipPath>
</defs>
</svg>
