<svg width="15" height="9" viewBox="0 0 15 9" fill="none" xmlns="http://www.w3.org/2000/svg">
<path d="M2.5 5.125C3.1875 5.125 3.75 4.5625 3.75 3.875C3.75 3.1875 3.1875 2.625 2.5 2.625C1.8125 2.625 1.25 3.1875 1.25 3.875C1.25 4.5625 1.8125 5.125 2.5 5.125ZM3.20625 5.8125C2.975 5.775 2.74375 5.75 2.5 5.75C1.88125 5.75 1.29375 5.88125 0.7625 6.1125C0.3 6.3125 0 6.7625 0 7.26875V8.25H2.8125V7.24375C2.8125 6.725 2.95625 6.2375 3.20625 5.8125ZM12.5 5.125C13.1875 5.125 13.75 4.5625 13.75 3.875C13.75 3.1875 13.1875 2.625 12.5 2.625C11.8125 2.625 11.25 3.1875 11.25 3.875C11.25 4.5625 11.8125 5.125 12.5 5.125ZM15 7.26875C15 6.7625 14.7 6.3125 14.2375 6.1125C13.7063 5.88125 13.1187 5.75 12.5 5.75C12.2563 5.75 12.025 5.775 11.7938 5.8125C12.0438 6.2375 12.1875 6.725 12.1875 7.24375V8.25H15V7.26875ZM10.15 5.53125C9.41875 5.20625 8.51875 4.96875 7.5 4.96875C6.48125 4.96875 5.58125 5.2125 4.85 5.53125C4.175 5.83125 3.75 6.50625 3.75 7.24375V8.25H11.25V7.24375C11.25 6.50625 10.825 5.83125 10.15 5.53125ZM5.04375 7C5.1 6.85625 5.125 6.75625 5.6125 6.56875C6.21875 6.33125 6.85625 6.21875 7.5 6.21875C8.14375 6.21875 8.78125 6.33125 9.3875 6.56875C9.86875 6.75625 9.89375 6.85625 9.95625 7H5.04375ZM7.5 2C7.84375 2 8.125 2.28125 8.125 2.625C8.125 2.96875 7.84375 3.25 7.5 3.25C7.15625 3.25 6.875 2.96875 6.875 2.625C6.875 2.28125 7.15625 2 7.5 2ZM7.5 0.75C6.4625 0.75 5.625 1.5875 5.625 2.625C5.625 3.6625 6.4625 4.5 7.5 4.5C8.5375 4.5 9.375 3.6625 9.375 2.625C9.375 1.5875 8.5375 0.75 7.5 0.75Z" fill="#E9E9EB"/>
</svg>
