<svg width="20" height="20" viewBox="0 0 20 20" fill="none" xmlns="http://www.w3.org/2000/svg">
<path opacity="0.3" d="M10.8333 10.8333L8.33333 8.95825L5.83333 10.8333V3.33325H5V16.6666H15V3.33325H10.8333V10.8333Z" fill="white"/>
<path d="M14.9999 1.66675H4.99992C4.08325 1.66675 3.33325 2.41675 3.33325 3.33341V16.6667C3.33325 17.5834 4.08325 18.3334 4.99992 18.3334H14.9999C15.9166 18.3334 16.6666 17.5834 16.6666 16.6667V3.33341C16.6666 2.41675 15.9166 1.66675 14.9999 1.66675ZM7.49992 3.33341H9.16658V7.50008L8.33325 6.87508L7.49992 7.50008V3.33341ZM14.9999 16.6667H4.99992V3.33341H5.83325V10.8334L8.33325 8.95842L10.8333 10.8334V3.33341H14.9999V16.6667Z" fill="white"/>
</svg>

