<svg width="13" height="13" viewBox="0 0 13 13" fill="none" xmlns="http://www.w3.org/2000/svg">
<path d="M6.49375 0.141602C3.04375 0.141602 0.25 2.9416 0.25 6.3916C0.25 9.8416 3.04375 12.6416 6.49375 12.6416C9.95 12.6416 12.75 9.8416 12.75 6.3916C12.75 2.9416 9.95 0.141602 6.49375 0.141602ZM6.5 11.3916C3.7375 11.3916 1.5 9.1541 1.5 6.3916C1.5 3.6291 3.7375 1.3916 6.5 1.3916C9.2625 1.3916 11.5 3.6291 11.5 6.3916C11.5 9.1541 9.2625 11.3916 6.5 11.3916ZM6.8125 3.2666H5.875V7.0166L9.15625 8.98535L9.625 8.2166L6.8125 6.54785V3.2666Z" fill="white"/>
</svg>
