
<svg width="46" height="46" viewBox="0 0 46 46" fill="none" xmlns="http://www.w3.org/2000/svg">
<rect width="46" height="46" rx="10" fill="#9EA4C1" fill-opacity="0.3"/>
<g clip-path="url(#clip0_1704_8668)">
<path opacity="0.3" d="M22.9996 17.375C20.453 17.375 18.9087 19.4409 18.9087 21.9773V28.1136H27.0905V21.9773C27.0905 19.4409 25.5462 17.375 22.9996 17.375Z" fill="#9EA4C1"/>
<path d="M22.9998 33.2274C24.1248 33.2274 25.0453 32.3069 25.0453 31.1819H20.9544C20.9544 32.3069 21.8748 33.2274 22.9998 33.2274ZM29.1362 21.9774C29.1362 18.8376 27.4691 16.2092 24.5339 15.5137V14.8183C24.5339 13.9694 23.8487 13.2842 22.9998 13.2842C22.151 13.2842 21.4657 13.9694 21.4657 14.8183V15.5137C18.5407 16.2092 16.8634 18.8274 16.8634 21.9774V27.091L14.818 29.1365V30.1592H31.1816V29.1365L29.1362 27.091V21.9774ZM27.0907 28.1137H18.9089V21.9774C18.9089 19.441 20.4532 17.3751 22.9998 17.3751C25.5464 17.3751 27.0907 19.441 27.0907 21.9774V28.1137ZM18.4794 14.9001L17.0169 13.4376C14.5623 15.3092 12.9464 18.1933 12.8032 21.466H14.8487C15.0021 18.7558 16.393 16.383 18.4794 14.9001V14.9001ZM31.1509 21.466H33.1964C33.043 18.1933 31.4271 15.3092 28.9828 13.4376L27.5305 14.9001C29.5964 16.383 30.9975 18.7558 31.1509 21.466Z" fill="#9EA4C1"/>
</g>
<defs>
<clipPath id="clip0_1704_8668">
<rect width="24.5455" height="24.5455" fill="white" transform="translate(10.7271 10.7273)"/>
</clipPath>
</defs>
</svg>
