<svg width="18" height="15" viewBox="0 0 18 15" fill="none" xmlns="http://www.w3.org/2000/svg">
<path d="M12 4.5H10.5V6.75H8.25V8.25H10.5V10.5H12V8.25H14.25V6.75H12V4.5ZM11.25 0.75C7.53 0.75 4.5 3.78 4.5 7.5C4.5 11.22 7.53 14.25 11.25 14.25C14.97 14.25 18 11.22 18 7.5C18 3.78 14.97 0.75 11.25 0.75ZM11.25 12.75C8.355 12.75 6 10.395 6 7.5C6 4.605 8.355 2.25 11.25 2.25C14.145 2.25 16.5 4.605 16.5 7.5C16.5 10.395 14.145 12.75 11.25 12.75ZM1.5 7.5C1.5 5.4075 2.73 3.6 4.5075 2.76V1.14C1.89 2.07 0 4.5675 0 7.5C0 10.4325 1.89 12.93 4.5075 13.86V12.24C2.73 11.4 1.5 9.5925 1.5 7.5Z" fill="white"/>
</svg>
