
<svg width="46" height="46" viewBox="0 0 46 46" fill="none" xmlns="http://www.w3.org/2000/svg">
<rect width="46" height="46" rx="10" fill="#343957"/>
<path opacity="0.3" d="M26 22.0416V15.3333H15V23.1628L16.17 22.0416H17H26Z" fill="#9EA4C1"/>
<path d="M27 23.9584C27.55 23.9584 28 23.5272 28 23.0001V14.3751C28 13.848 27.55 13.4167 27 13.4167H14C13.45 13.4167 13 13.848 13 14.3751V27.7917L17 23.9584H27ZM15 23.163V15.3334H26V22.0417H16.17L15 23.163ZM33 18.2084C33 17.6813 32.55 17.2501 32 17.2501H30V25.8751H17V27.7917C17 28.3188 17.45 28.7501 18 28.7501H29L33 32.5834V18.2084Z" fill="#9EA4C1"/>
</svg>
