<svg width="16" height="16" viewBox="0 0 16 16" fill="none" xmlns="http://www.w3.org/2000/svg">
    <path
        d="M11.6 0.800049C10.208 0.800049 8.872 1.44805 8 2.47205C7.128 1.44805 5.792 0.800049 4.4 0.800049C1.936 0.800049 0 2.73605 0 5.20005C0 8.22405 2.72 10.6881 6.84 14.432L8 15.48L9.16 14.424C13.28 10.688 16 8.22405 16 5.20005C16 2.73605 14.064 0.800049 11.6 0.800049ZM8.08 13.24L8 13.32L7.92 13.24C4.112 9.79205 1.6 7.51205 1.6 5.20005C1.6 3.60005 2.8 2.40005 4.4 2.40005C5.632 2.40005 6.832 3.19205 7.256 4.28805H8.752C9.168 3.19205 10.368 2.40005 11.6 2.40005C13.2 2.40005 14.4 3.60005 14.4 5.20005C14.4 7.51205 11.888 9.79205 8.08 13.24Z"
        fill="white" />
</svg>