<svg width="12" height="12" viewBox="0 0 12 12" fill="none" xmlns="http://www.w3.org/2000/svg">
<path d="M8.7 0.599609C7.656 0.599609 6.654 1.08561 6 1.85361C5.346 1.08561 4.344 0.599609 3.3 0.599609C1.452 0.599609 0 2.05161 0 3.89961C0 6.16761 2.04 8.01561 5.13 10.8236L6 11.6096L6.87 10.8176C9.96 8.01561 12 6.16761 12 3.89961C12 2.05161 10.548 0.599609 8.7 0.599609ZM6.06 9.92961L6 9.98961L5.94 9.92961C3.084 7.34361 1.2 5.63361 1.2 3.89961C1.2 2.69961 2.1 1.79961 3.3 1.79961C4.224 1.79961 5.124 2.39361 5.442 3.21561H6.564C6.876 2.39361 7.776 1.79961 8.7 1.79961C9.9 1.79961 10.8 2.69961 10.8 3.89961C10.8 5.63361 8.916 7.34361 6.06 9.92961Z" fill="white"/>
</svg>
