<svg width="20" height="20" viewBox="0 0 20 20" fill="none" xmlns="http://www.w3.org/2000/svg">
<path d="M9.9999 0.399902C4.7007 0.399902 0.399902 4.7007 0.399902 9.9999C0.399902 15.2991 4.7007 19.5999 9.9999 19.5999C15.2991 19.5999 19.5999 15.2991 19.5999 9.9999C19.5999 4.7007 15.2991 0.399902 9.9999 0.399902ZM9.9999 17.6799C5.7663 17.6799 2.3199 14.2335 2.3199 9.9999C2.3199 5.7663 5.7663 2.3199 9.9999 2.3199C14.2335 2.3199 17.6799 5.7663 17.6799 9.9999C17.6799 14.2335 14.2335 17.6799 9.9999 17.6799Z" fill="white"/>
<path fill-rule="evenodd" clip-rule="evenodd" d="M13.0434 9.99981L8.3999 7.60469V12.3949L13.0434 9.99981ZM13.677 9.50471C13.7751 9.55464 13.8566 9.62672 13.9133 9.71366C13.97 9.8006 13.9999 9.89931 13.9999 9.99981C13.9999 10.1003 13.97 10.199 13.9133 10.286C13.8566 10.3729 13.7751 10.445 13.677 10.4949L8.58631 13.1212C8.17029 13.336 7.59985 13.0906 7.59985 12.6261V7.3735C7.59985 6.90899 8.17029 6.66357 8.58631 6.8784L13.677 9.50471Z" fill="white"/>
</svg>

