<svg width="16" height="16" viewBox="0 0 16 16" fill="none" xmlns="http://www.w3.org/2000/svg">
    <path
        d="M12.8 11.264C12.192 11.264 11.648 11.504 11.232 11.88L5.52799 8.56C5.56799 8.376 5.59999 8.192 5.59999 8C5.59999 7.808 5.56799 7.624 5.52799 7.44L11.168 4.152C11.6 4.552 12.168 4.8 12.8 4.8C14.128 4.8 15.2 3.728 15.2 2.4C15.2 1.072 14.128 0 12.8 0C11.472 0 10.4 1.072 10.4 2.4C10.4 2.592 10.432 2.776 10.472 2.96L4.83199 6.248C4.39999 5.848 3.83199 5.6 3.19999 5.6C1.87199 5.6 0.799988 6.672 0.799988 8C0.799988 9.328 1.87199 10.4 3.19999 10.4C3.83199 10.4 4.39999 10.152 4.83199 9.752L10.528 13.08C10.488 13.248 10.464 13.424 10.464 13.6C10.464 14.888 11.512 15.936 12.8 15.936C14.088 15.936 15.136 14.888 15.136 13.6C15.136 12.312 14.088 11.264 12.8 11.264ZM12.8 1.6C13.24 1.6 13.6 1.96 13.6 2.4C13.6 2.84 13.24 3.2 12.8 3.2C12.36 3.2 12 2.84 12 2.4C12 1.96 12.36 1.6 12.8 1.6ZM3.19999 8.8C2.75999 8.8 2.39999 8.44 2.39999 8C2.39999 7.56 2.75999 7.2 3.19999 7.2C3.63999 7.2 3.99999 7.56 3.99999 8C3.99999 8.44 3.63999 8.8 3.19999 8.8ZM12.8 14.416C12.36 14.416 12 14.056 12 13.616C12 13.176 12.36 12.816 12.8 12.816C13.24 12.816 13.6 13.176 13.6 13.616C13.6 14.056 13.24 14.416 12.8 14.416Z"
        fill="white" />
</svg>