<svg width="4" height="14" viewBox="0 0 4 14" fill="none" xmlns="http://www.w3.org/2000/svg">
<path d="M2.00001 3.55831C2.91668 3.55831 3.66668 2.80831 3.66668 1.89164C3.66668 0.974976 2.91668 0.224976 2.00001 0.224976C1.08334 0.224976 0.333344 0.974976 0.333344 1.89164C0.333344 2.80831 1.08334 3.55831 2.00001 3.55831ZM2.00001 5.22498C1.08334 5.22498 0.333344 5.97498 0.333344 6.89164C0.333344 7.80831 1.08334 8.55831 2.00001 8.55831C2.91668 8.55831 3.66668 7.80831 3.66668 6.89164C3.66668 5.97498 2.91668 5.22498 2.00001 5.22498ZM2.00001 10.225C1.08334 10.225 0.333344 10.975 0.333344 11.8916C0.333344 12.8083 1.08334 13.5583 2.00001 13.5583C2.91668 13.5583 3.66668 12.8083 3.66668 11.8916C3.66668 10.975 2.91668 10.225 2.00001 10.225Z" fill="white"/>
</svg>