<svg width="13" height="13" viewBox="0 0 13 13" fill="none" xmlns="http://www.w3.org/2000/svg">
<path d="M6.49375 0.267578C3.04375 0.267578 0.25 3.10743 0.25 6.60654C0.25 10.1056 3.04375 12.9455 6.49375 12.9455C9.95 12.9455 12.75 10.1056 12.75 6.60654C12.75 3.10743 9.95 0.267578 6.49375 0.267578ZM6.5 11.6777C3.7375 11.6777 1.5 9.40836 1.5 6.60654C1.5 3.80472 3.7375 1.53537 6.5 1.53537C9.2625 1.53537 11.5 3.80472 11.5 6.60654C11.5 9.40836 9.2625 11.6777 6.5 11.6777ZM6.8125 3.43706H5.875V7.24044L9.15625 9.23721L9.625 8.45752L6.8125 6.76501V3.43706Z" fill="white"/>
</svg>
