<?xml version="1.0" encoding="utf-8"?>
<!-- Generator: Adobe Illustrator 24.1.1, SVG Export Plug-In . SVG Version: 6.00 Build 0)  -->
<svg version="1.1" id="Layer_1" xmlns="http://www.w3.org/2000/svg" xmlns:xlink="http://www.w3.org/1999/xlink" x="0px" y="0px"
	 viewBox="0 0 512 512" style="enable-background:new 0 0 512 512;" xml:space="preserve">
<style type="text/css">
	.st0{fill-rule:evenodd;clip-rule:evenodd;fill:#555555;}
</style>
<g>
	<path class="st0" d="M294.4,76.8c63.6,0,115.2,51.6,115.2,115.1c0,2.3-0.1,4.7-0.2,7l0.2,0l0,31.4c54.9,0,99.6,43.1,102.3,97.2
		l0.1,5.1c0,54.8-43.1,99.6-97.3,102.2l-5.1,0.1h0l0,0.2h-128l0-100.4l63.1,0L256,230.5l-88.4,104.3l62.8,0l0,100.4h-128
		C45.8,435,0,389.2,0,332.7c0-49.5,35.2-90.8,81.9-100.3c-3.3-8.5-5.1-17.8-5.1-27.5c0-42.4,34.4-76.8,76.8-76.8
		c14.1,0,27.3,3.8,38.7,10.4C211.5,101.9,250,76.8,294.4,76.8z"/>
</g>
</svg>
