<svg width="37" height="37" viewBox="0 0 37 37" fill="none" xmlns="http://www.w3.org/2000/svg">
<rect x="37" y="0.5" width="36" height="37" rx="5" transform="rotate(90 37 0.5)" fill="#3B3D46"/>
<g clip-path="url(#clip0_5742_7926)">
<path d="M18.4993 14.8332C19.6452 14.8332 20.5827 13.8957 20.5827 12.7498C20.5827 11.604 19.6452 10.6665 18.4993 10.6665C17.3535 10.6665 16.416 11.604 16.416 12.7498C16.416 13.8957 17.3535 14.8332 18.4993 14.8332ZM18.4993 16.9165C17.3535 16.9165 16.416 17.854 16.416 18.9998C16.416 20.1457 17.3535 21.0832 18.4993 21.0832C19.6452 21.0832 20.5827 20.1457 20.5827 18.9998C20.5827 17.854 19.6452 16.9165 18.4993 16.9165ZM18.4993 23.1665C17.3535 23.1665 16.416 24.104 16.416 25.2498C16.416 26.3957 17.3535 27.3332 18.4993 27.3332C19.6452 27.3332 20.5827 26.3957 20.5827 25.2498C20.5827 24.104 19.6452 23.1665 18.4993 23.1665Z" fill="#DCCEFA"/>
</g>
<defs>
<clipPath id="clip0_5742_7926">
<rect width="25" height="25" fill="white" transform="translate(6 6.5)"/>
</clipPath>
</defs>
</svg>
