<svg width="17" height="14" viewBox="0 0 17 14" fill="none" xmlns="http://www.w3.org/2000/svg">
<path d="M14.8757 0.625H2.12565C1.41732 0.625 0.708984 1.33333 0.708984 2.04167V11.9583C0.708984 12.7375 1.34648 13.375 2.12565 13.375H14.8757C15.584 13.375 16.2923 12.6667 16.2923 11.9583V2.04167C16.2923 1.33333 15.584 0.625 14.8757 0.625ZM14.8757 11.9017C14.8615 11.9229 14.8332 11.9442 14.819 11.9583H2.12565V2.09833L2.18232 2.04167H14.8119C14.8332 2.05583 14.8544 2.08417 14.8686 2.09833V11.9017H14.8757ZM7.79232 9.48625L6.02148 7.35417L3.54232 10.5417H13.459L10.2715 6.29167L7.79232 9.48625Z" fill="#F586E6"/>
</svg>
