<svg width="17" height="20" viewBox="0 0 17 20" fill="none" xmlns="http://www.w3.org/2000/svg">
<path d="M14.0667 13.9833C13.3644 13.9833 12.736 14.2708 12.2554 14.7212L5.66655 10.7442C5.71276 10.5237 5.74972 10.3033 5.74972 10.0733C5.74972 9.84332 5.71276 9.62291 5.66655 9.40249L12.1815 5.46374C12.6805 5.94291 13.3366 6.23999 14.0667 6.23999C15.6007 6.23999 16.839 4.95582 16.839 3.36499C16.839 1.77416 15.6007 0.48999 14.0667 0.48999C12.5327 0.48999 11.2944 1.77416 11.2944 3.36499C11.2944 3.59499 11.3313 3.81541 11.3775 4.03582L4.86258 7.97457C4.36356 7.49541 3.70744 7.19832 2.9774 7.19832C1.44338 7.19832 0.205078 8.48249 0.205078 10.0733C0.205078 11.6642 1.44338 12.9483 2.9774 12.9483C3.70744 12.9483 4.36356 12.6512 4.86258 12.1721L11.4422 16.1587C11.396 16.36 11.3683 16.5708 11.3683 16.7817C11.3683 18.3246 12.5789 19.58 14.0667 19.58C15.5545 19.58 16.7651 18.3246 16.7651 16.7817C16.7651 15.2387 15.5545 13.9833 14.0667 13.9833ZM14.0667 2.40666C14.5749 2.40666 14.9908 2.83791 14.9908 3.36499C14.9908 3.89207 14.5749 4.32332 14.0667 4.32332C13.5584 4.32332 13.1426 3.89207 13.1426 3.36499C13.1426 2.83791 13.5584 2.40666 14.0667 2.40666ZM2.9774 11.0317C2.46914 11.0317 2.05329 10.6004 2.05329 10.0733C2.05329 9.54624 2.46914 9.11499 2.9774 9.11499C3.48566 9.11499 3.90151 9.54624 3.90151 10.0733C3.90151 10.6004 3.48566 11.0317 2.9774 11.0317ZM14.0667 17.7592C13.5584 17.7592 13.1426 17.3279 13.1426 16.8008C13.1426 16.2737 13.5584 15.8425 14.0667 15.8425C14.5749 15.8425 14.9908 16.2737 14.9908 16.8008C14.9908 17.3279 14.5749 17.7592 14.0667 17.7592Z" fill="#F6F8FB"/>
</svg>
