<svg width="25" height="23" viewBox="0 0 25 23" fill="none" xmlns="http://www.w3.org/2000/svg">
<g clip-path="url(#clip0_4634_61789)">
<path opacity="0.3" d="M17.1878 4.7915C15.5837 4.7915 14.0212 5.74025 13.4795 7.05317H11.5316C10.9795 5.74025 9.41699 4.7915 7.81283 4.7915C5.72949 4.7915 4.16699 6.229 4.16699 8.14567C4.16699 10.9153 7.43783 13.6465 12.3962 17.7769L12.5003 17.8728L12.6045 17.7769C17.5628 13.6465 20.8337 10.9153 20.8337 8.14567C20.8337 6.229 19.2712 4.7915 17.1878 4.7915Z" fill="#F1416C"/>
<path d="M17.1872 2.875C15.3747 2.875 13.6351 3.65125 12.4997 4.87792C11.3643 3.65125 9.62467 2.875 7.81217 2.875C4.60384 2.875 2.08301 5.19417 2.08301 8.14583C2.08301 11.7683 5.62467 14.72 10.9893 19.205L12.4997 20.4604L14.0101 19.1954C19.3747 14.72 22.9163 11.7683 22.9163 8.14583C22.9163 5.19417 20.3955 2.875 17.1872 2.875ZM12.6038 17.7771L12.4997 17.8729L12.3955 17.7771C7.43717 13.6467 4.16634 10.9154 4.16634 8.14583C4.16634 6.22917 5.72884 4.79167 7.81217 4.79167C9.41634 4.79167 10.9788 5.74042 11.5309 7.05333H13.4788C14.0205 5.74042 15.583 4.79167 17.1872 4.79167C19.2705 4.79167 20.833 6.22917 20.833 8.14583C20.833 10.9154 17.5622 13.6467 12.6038 17.7771Z" fill="#F1416C"/>
</g>
<defs>
<clipPath id="clip0_4634_61789">
<rect width="25" height="23" fill="white"/>
</clipPath>
</defs>
</svg>
