<svg width="18" height="16" viewBox="0 0 18 16" fill="none" xmlns="http://www.w3.org/2000/svg">
<path d="M12.7899 0.171387C11.3112 0.171387 9.89204 0.827839 8.96576 1.8652C8.03948 0.827839 6.62032 0.171387 5.14167 0.171387C2.52429 0.171387 0.467773 2.13264 0.467773 4.62878C0.467773 7.69222 3.35709 10.1884 7.73355 13.9812L8.96576 15.0429L10.198 13.9731C14.5744 10.1884 17.4638 7.69222 17.4638 4.62878C17.4638 2.13264 15.4072 0.171387 12.7899 0.171387ZM9.05074 12.7736L8.96576 12.8547L8.88078 12.7736C4.83574 9.28067 2.16737 6.97093 2.16737 4.62878C2.16737 3.00791 3.44207 1.79226 5.14167 1.79226C6.45036 1.79226 7.72506 2.59459 8.17545 3.70488H9.76457C10.2065 2.59459 11.4812 1.79226 12.7899 1.79226C14.4895 1.79226 15.7642 3.00791 15.7642 4.62878C15.7642 6.97093 13.0958 9.28067 9.05074 12.7736Z" fill="#C0C4CC"/>
</svg>
