<svg width="23" height="23" viewBox="0 0 23 23" fill="none" xmlns="http://www.w3.org/2000/svg">
<path opacity="0.3" d="M16.6341 5.75016C17.1444 5.75016 17.5582 5.3211 17.5582 4.79183C17.5582 4.26256 17.1444 3.8335 16.6341 3.8335C16.1237 3.8335 15.71 4.26256 15.71 4.79183C15.71 5.3211 16.1237 5.75016 16.6341 5.75016Z" fill="#F6F8FB"/>
<path opacity="0.3" d="M5.54422 12.4582C6.05459 12.4582 6.46833 12.0291 6.46833 11.4998C6.46833 10.9706 6.05459 10.5415 5.54422 10.5415C5.03385 10.5415 4.62012 10.9706 4.62012 11.4998C4.62012 12.0291 5.03385 12.4582 5.54422 12.4582Z" fill="#F6F8FB"/>
<path opacity="0.3" d="M16.6341 19.1857C17.1444 19.1857 17.5582 18.7566 17.5582 18.2274C17.5582 17.6981 17.1444 17.269 16.6341 17.269C16.1237 17.269 15.71 17.6981 15.71 18.2274C15.71 18.7566 16.1237 19.1857 16.6341 19.1857Z" fill="#F6F8FB"/>
<path d="M16.6341 15.4098C15.9317 15.4098 15.3034 15.6973 14.8228 16.1478L8.23393 12.1707C8.28014 11.9503 8.3171 11.7298 8.3171 11.4998C8.3171 11.2698 8.28014 11.0494 8.23393 10.829L14.7489 6.89025C15.2479 7.36942 15.904 7.6665 16.6341 7.6665C18.1681 7.6665 19.4064 6.38234 19.4064 4.7915C19.4064 3.20067 18.1681 1.9165 16.6341 1.9165C15.1001 1.9165 13.8617 3.20067 13.8617 4.7915C13.8617 5.0215 13.8987 5.24192 13.9449 5.46234L7.42996 9.40109C6.93094 8.92192 6.27483 8.62484 5.54478 8.62484C4.01076 8.62484 2.77246 9.909 2.77246 11.4998C2.77246 13.0907 4.01076 14.3748 5.54478 14.3748C6.27483 14.3748 6.93094 14.0778 7.42996 13.5986L14.0096 17.5853C13.9634 17.7865 13.9357 17.9973 13.9357 18.2082C13.9357 19.7511 15.1463 21.0065 16.6341 21.0065C18.1219 21.0065 19.3325 19.7511 19.3325 18.2082C19.3325 16.6653 18.1219 15.4098 16.6341 15.4098ZM16.6341 3.83317C17.1423 3.83317 17.5582 4.26442 17.5582 4.7915C17.5582 5.31859 17.1423 5.74984 16.6341 5.74984C16.1258 5.74984 15.71 5.31859 15.71 4.7915C15.71 4.26442 16.1258 3.83317 16.6341 3.83317ZM5.54478 12.4582C5.03652 12.4582 4.62068 12.0269 4.62068 11.4998C4.62068 10.9728 5.03652 10.5415 5.54478 10.5415C6.05304 10.5415 6.46889 10.9728 6.46889 11.4998C6.46889 12.0269 6.05304 12.4582 5.54478 12.4582ZM16.6341 19.1857C16.1258 19.1857 15.71 18.7544 15.71 18.2273C15.71 17.7003 16.1258 17.269 16.6341 17.269C17.1423 17.269 17.5582 17.7003 17.5582 18.2273C17.5582 18.7544 17.1423 19.1857 16.6341 19.1857Z" fill="#F6F8FB"/>
</svg>
