<svg width="21" height="19" viewBox="0 0 21 19" fill="none" xmlns="http://www.w3.org/2000/svg">
<path opacity="0.3" d="M18.1667 4.74967H14.2855L12.5317 2.83301H8.46837L6.71462 4.74967H2.83337V16.2497H18.1667V4.74967ZM10.5 15.2913C7.85504 15.2913 5.70837 13.1447 5.70837 10.4997C5.70837 7.85467 7.85504 5.70801 10.5 5.70801C13.145 5.70801 15.2917 7.85467 15.2917 10.4997C15.2917 13.1447 13.145 15.2913 10.5 15.2913Z" fill="#9EA4C1"/>
<path d="M2.83329 18.167H18.1666C19.2208 18.167 20.0833 17.3045 20.0833 16.2503V4.75033C20.0833 3.69616 19.2208 2.83366 18.1666 2.83366H15.1287L13.375 0.916992H7.62496L5.87121 2.83366H2.83329C1.77913 2.83366 0.916626 3.69616 0.916626 4.75033V16.2503C0.916626 17.3045 1.77913 18.167 2.83329 18.167ZM2.83329 4.75033H6.71454L8.46829 2.83366H12.5316L14.2854 4.75033H18.1666V16.2503H2.83329V4.75033ZM10.5 5.70866C7.85496 5.70866 5.70829 7.85533 5.70829 10.5003C5.70829 13.1453 7.85496 15.292 10.5 15.292C13.145 15.292 15.2916 13.1453 15.2916 10.5003C15.2916 7.85533 13.145 5.70866 10.5 5.70866ZM10.5 13.3753C8.91871 13.3753 7.62496 12.0816 7.62496 10.5003C7.62496 8.91908 8.91871 7.62533 10.5 7.62533C12.0812 7.62533 13.375 8.91908 13.375 10.5003C13.375 12.0816 12.0812 13.3753 10.5 13.3753Z" fill="#CCCEDD"/>
</svg>
