<svg width="43" height="43" viewBox="0 0 43 43" fill="none" xmlns="http://www.w3.org/2000/svg">
<path d="M21.5001 42.3334C33.0001 42.3334 42.3334 33.0001 42.3334 21.5001C42.3334 10.0001 33.0001 0.666748 21.5001 0.666748C10.0001 0.666748 0.666748 10.0001 0.666748 21.5001C0.666748 33.0001 10.0001 42.3334 21.5001 42.3334ZM21.5001 4.83341C30.6876 4.83341 38.1667 12.3126 38.1667 21.5001C38.1667 30.6876 30.6876 38.1667 21.5001 38.1667C12.3126 38.1667 4.83341 30.6876 4.83341 21.5001C4.83341 12.3126 12.3126 4.83341 21.5001 4.83341ZM17.3334 12.1251V30.8751L29.8334 21.5001L17.3334 12.1251Z" fill="#F586E6"/>
</svg>