<svg width="13" height="13" viewBox="0 0 13 13" fill="none" xmlns="http://www.w3.org/2000/svg">
<path d="M9.15 3.73535C8.41875 3.0041 7.4625 2.63535 6.5 2.63535V6.38535L3.85 9.03535C5.3125 10.4979 7.6875 10.4979 9.15625 9.03535C10.6187 7.57285 10.6187 5.19785 9.15 3.73535ZM6.5 0.135353C3.05 0.135353 0.25 2.93535 0.25 6.38535C0.25 9.83535 3.05 12.6354 6.5 12.6354C9.95 12.6354 12.75 9.83535 12.75 6.38535C12.75 2.93535 9.95 0.135353 6.5 0.135353V0.135353ZM6.5 11.3854C3.7375 11.3854 1.5 9.14785 1.5 6.38535C1.5 3.62285 3.7375 1.38535 6.5 1.38535C9.2625 1.38535 11.5 3.62285 11.5 6.38535C11.5 9.14785 9.2625 11.3854 6.5 11.3854Z" fill="white"/>
</svg>